<svg width="424" height="354" viewBox="0 0 424 354" fill="none" xmlns="http://www.w3.org/2000/svg">
<g clip-path="url(#clip0_766_225)">
<path d="M29.0239 305.51H404.015V183.281C404.015 183.281 388.197 0 210.807 0C37.184 0 28.0195 171.975 28.0195 171.975L29.0239 305.51Z" fill="#E4FFFA"/>
<path d="M161.093 103.512H157.202L155.193 95.2207H159.085L161.093 103.512Z" fill="#545152"/>
<path d="M142.388 175.366L134.227 118.083C134.227 118.083 133.349 109.29 142.388 105.521C150.046 102.255 187.331 97.9838 196.998 99.3657C206.288 100.747 211.184 103.26 210.933 108.913C210.807 114.063 214.95 167.955 214.95 167.955L142.388 175.366Z" fill="#272525"/>
<path d="M144.271 80.2716L147.158 95.0949C147.158 95.0949 147.535 97.733 151.678 97.3561C155.946 96.9792 181.431 95.723 181.807 95.0949C182.184 94.4668 181.054 75.498 181.054 75.498L147.535 76.503C147.66 76.503 143.894 76.8799 144.271 80.2716Z" fill="#272525"/>
<path d="M193.232 102.256C193.232 102.256 192.981 102.004 192.479 100.999C191.976 100.12 190.847 99.9943 189.717 99.8687C185.574 99.3662 179.925 99.7431 179.673 99.7431C179.548 99.7431 175.028 100.999 170.258 100.874C167.245 100.874 166.743 103.512 166.617 103.512C158.834 106.275 149.92 109.918 149.92 109.918C149.92 109.918 146.154 109.918 145.275 113.059C144.773 114.692 144.02 116.953 144.02 116.953L136.487 150.62C136.487 150.62 149.292 153.635 159.587 151.625C160.466 152.253 159.336 171.473 159.336 171.473L215.202 167.076L214.323 142.329C214.323 142.329 228.885 136.424 229.011 135.168C229.137 133.912 217.336 109.918 217.21 109.667C217.085 109.29 215.453 107.155 214.072 106.652C212.816 106.275 193.232 102.256 193.232 102.256Z" fill="#3E768C"/>
<path d="M228.634 135.293C228.76 134.037 216.959 110.043 216.833 109.792C216.708 109.541 215.076 107.28 213.695 106.777C212.816 106.526 205.032 104.893 199.132 103.637C198.504 103.762 197.876 104.014 197.249 104.516C193.231 107.28 192.98 113.184 192.98 117.455C192.98 124.992 193.483 132.781 191.976 140.192C190.344 147.604 186.201 153.634 180.175 158.031C175.154 161.674 170.885 165.819 167.621 170.844L214.825 167.075L213.946 142.328C213.946 142.454 228.509 136.549 228.634 135.293Z" fill="#20789B"/>
<path d="M194.864 60.5491C194.864 60.5491 198.128 63.3128 198.253 63.9409C198.379 64.569 194.989 66.5789 194.864 72.4831C194.864 73.4881 191.725 77.2567 190.595 72.1062C189.465 66.9558 187.833 65.6996 188.21 62.9359C188.587 60.1722 188.838 58.5392 190.093 58.4135C191.097 58.1623 194.864 60.5491 194.864 60.5491Z" fill="black"/>
<path d="M193.734 65.1969L194.864 72.4829L193.985 76.2515L194.989 79.7689C195.115 80.1458 194.989 81.2764 194.989 81.5276L192.478 95.7228C192.478 95.7228 191.474 99.617 186.201 99.2402C182.059 98.9889 176.284 95.8484 174.275 93.336C172.392 90.8236 169.379 83.6632 169.379 83.6632L171.262 63.3126C171.262 63.3126 179.924 60.2977 187.331 60.8001C194.738 61.3026 193.734 65.1969 193.734 65.1969Z" fill="#BB8574"/>
<path d="M170.006 84.417C171.639 91.5774 171.136 100.245 169.63 103.135C169.63 103.135 175.154 111.928 185.323 109.416C189.716 108.285 191.097 104.265 190.47 102.13C189.842 99.994 187.08 94.2154 187.08 94.2154L170.006 84.417Z" fill="#BB8574"/>
<path d="M170.007 77.0054C170.007 77.0054 168.626 73.9905 166.617 74.1161C164.609 74.3674 163.479 77.0054 163.604 78.8897C163.855 80.774 165.864 83.4121 166.617 84.2914C167.37 85.1708 168.124 86.0501 169.881 85.422C171.639 84.6683 170.007 77.0054 170.007 77.0054Z" fill="#BB8574"/>
<path d="M169.002 75.4981C169.128 75.6237 169.128 75.6237 169.128 75.7493C169.504 76.2518 170.634 78.1361 171.011 78.7642C171.387 79.3924 171.764 78.8899 171.764 78.3874C171.764 76.7543 171.513 72.3576 173.773 71.1014C174.149 70.8501 174.4 70.5989 174.526 70.222C174.903 68.7146 175.028 65.4484 174.903 65.1972C174.777 65.0716 172.643 62.8104 171.639 62.1823C171.387 62.0566 171.262 59.1674 171.136 58.9161C170.634 58.0368 169.253 58.5393 166.742 59.293C165.11 59.7955 164.232 60.8004 163.729 61.6798C163.604 61.931 163.604 62.3079 164.106 62.936C164.859 63.941 165.613 65.0716 165.864 66.579C166.115 67.8352 166.366 71.7295 166.617 73.3625C166.617 73.865 166.993 74.2419 167.37 74.4931C167.747 74.7444 168.5 75.1212 169.002 75.4981Z" fill="black"/>
<path d="M168.374 58.9161C168.374 58.9161 171.011 51.5044 180.677 50.4995C190.47 49.4945 194.738 52.3838 197.5 56.9061C200.262 61.4285 195.491 60.0467 191.223 61.6797C189.089 62.4335 190.595 62.936 184.695 63.9409C178.669 65.0715 174.777 65.3227 174.777 65.3227C174.777 65.3227 168.249 61.6797 168.374 58.9161Z" fill="black"/>
<path d="M181.054 75.749C181.054 76.5027 180.427 77.1309 179.673 77.1309C178.92 77.1309 178.292 76.5027 178.292 75.749C178.292 74.9953 178.92 74.3672 179.673 74.3672C180.427 74.3672 181.054 74.9953 181.054 75.749Z" fill="black"/>
<path d="M189.34 89.5671C188.084 89.8184 186.829 89.944 185.448 89.944C184.318 89.944 183.439 89.5671 182.309 89.0647C182.058 88.939 181.807 89.1903 181.933 89.4415C182.937 91.9539 187.708 91.3258 189.465 90.0696C189.842 89.944 189.591 89.5671 189.34 89.5671Z" fill="black"/>
<path d="M166.366 77.8851C166.617 76.6289 167.998 75.8751 169.253 76.5032C169.881 76.7545 170.258 77.257 170.383 77.8851C170.634 78.7644 170.258 79.1413 169.755 79.7694C169.253 80.5231 168.877 81.6537 169.881 82.1562C170.383 82.4074 170.885 81.6537 170.383 81.2768C169.755 80.9 171.011 79.6438 171.262 79.3925C171.513 78.89 171.639 78.3875 171.513 77.8851C171.387 77.0057 170.634 76.1264 169.881 75.6239C168.123 74.7445 166.115 75.8751 166.115 77.8851C165.864 78.0107 166.24 78.1363 166.366 77.8851Z" fill="black"/>
<path d="M175.907 95.9745C175.781 95.7232 176.158 95.472 176.409 95.7232C177.288 96.7282 178.543 98.11 179.673 98.6125C181.682 99.3662 186.201 99.7431 188.084 99.2406C188.084 99.2406 187.582 101.125 185.071 101.753C182.686 102.381 179.673 102.507 177.915 100.246C177.162 99.115 176.409 97.2307 175.907 95.9745Z" fill="#996559"/>
<path d="M158.833 171.723L200.262 168.332C199.509 168.08 199.132 168.08 199.132 168.08C199.132 168.08 183.44 168.206 181.682 159.413C180.05 150.493 168.877 150.87 166.868 148.107C164.859 145.343 164.106 139.188 164.232 137.806C164.357 136.424 162.349 134.414 162.223 137.303C162.098 140.192 160.089 151.75 160.089 151.75C160.968 152.378 158.833 171.723 158.833 171.723Z" fill="#43989D"/>
<path d="M175.405 71.8549C175.405 71.8549 179.799 73.1111 181.431 74.116C183.063 75.121 184.695 73.3623 184.695 73.3623C184.695 73.3623 182.058 71.6036 182.058 71.478C180.678 70.8499 175.405 71.8549 175.405 71.8549Z" fill="#996559"/>
<path d="M175.154 71.8546C178.669 71.4777 181.305 71.2265 183.691 73.2364C184.569 73.9901 185.699 72.2315 185.448 71.8546C184.193 70.724 181.807 70.0959 180.175 69.9703C178.669 69.8447 176.535 70.3471 175.028 71.2265C174.903 71.4777 174.903 71.8546 175.154 71.8546Z" fill="black"/>
<path d="M189.591 74.2422C189.591 74.2422 190.219 73.7397 190.344 73.4885C190.344 73.2372 193.357 72.3579 193.86 72.6091C194.362 72.8604 194.236 73.6141 193.985 73.8653C193.734 74.1166 192.479 74.9959 192.353 75.8753C192.228 76.7546 189.089 76.7546 189.215 76.2521C189.215 75.7496 189.591 74.2422 189.591 74.2422Z" fill="#996559"/>
<path d="M194.864 72.4831C194.738 71.7294 193.734 71.3526 193.106 71.2269C191.851 71.1013 190.595 71.4782 189.591 72.2319C189.465 72.3575 189.967 73.9906 190.846 73.6137C191.6 73.2369 192.98 72.1063 194.613 72.86C194.864 72.9856 194.864 72.7344 194.864 72.4831Z" fill="black"/>
<path d="M189.214 74.1167C188.336 75.4985 188.461 77.1316 189.089 78.5134C189.466 79.2671 189.968 80.0209 190.344 80.7746C190.847 81.7796 191.223 82.9101 190.093 83.6639C189.34 84.1664 188.461 84.1664 187.582 84.1664C187.206 84.1664 187.08 84.7945 187.457 84.9201C189.089 85.2969 191.6 84.5432 191.725 82.4077C191.725 81.2771 191.098 80.1465 190.595 79.2671C189.717 77.5084 189.34 76.1266 189.466 74.1167C189.591 73.9911 189.34 73.9911 189.214 74.1167Z" fill="black"/>
<path d="M192.353 76.126C192.353 76.8797 191.725 77.5078 190.972 77.5078C190.219 77.5078 189.591 76.8797 189.591 76.126C189.591 75.3722 190.219 74.7441 190.972 74.7441C191.725 74.7441 192.353 75.3722 192.353 76.126Z" fill="black"/>
<path d="M352.669 62.6846C353.422 58.5391 350.66 54.0168 349.53 50.2481C348.526 46.8564 349.279 42.9621 347.647 39.696C347.27 38.9422 346.015 38.9422 345.889 39.9472C345.638 41.8315 345.513 43.8415 345.262 45.8514C345.262 45.4745 345.136 45.0977 345.011 44.7208C344.885 44.2183 344.006 44.2183 344.132 44.8464C344.759 48.6151 342.5 52.3837 341.998 56.1523C341.872 56.6548 341.872 57.1573 341.872 57.6598C341.244 59.1672 340.617 60.8003 340.617 62.4334C340.491 66.202 341.998 71.6037 346.015 72.8599C346.14 72.8599 346.14 72.7343 346.015 72.7343C341.621 70.85 340.24 64.1921 341.495 60.0466C341.495 59.9209 341.621 59.6697 341.621 59.5441C341.621 61.4284 341.872 63.1871 342.5 64.9458C343.504 67.7094 345.638 70.9756 347.772 72.8599C349.028 73.9905 350.534 73.9905 352.041 73.2368C356.811 70.85 351.79 66.9557 352.669 62.6846Z" fill="black"/>
<path d="M364.972 59.9211C365.223 57.4087 365.599 54.7706 366.353 52.3838C367.106 49.7458 368.361 47.359 369.115 44.7209C370.119 41.0779 370.119 37.3093 371.751 33.9175C372.127 33.1638 372.504 32.5357 373.257 32.2845C373.76 32.1588 374.262 32.2845 374.638 32.4101C375.894 32.7869 375.768 32.7869 376.773 33.415C376.773 33.415 381.418 43.3391 381.041 52.1326C380.915 54.7706 380.664 57.1574 380.664 59.7955C381.166 71.9807 393.595 74.6187 395.729 78.2617C397.738 81.9048 397.11 84.6684 393.846 86.804C392.967 87.4321 391.586 86.3015 392.465 85.2965C394.348 83.161 393.344 80.3973 391.21 79.0155L391.084 78.8898C387.695 80.1461 383.05 80.6485 379.785 80.2717C374.387 79.518 368.863 77.0055 366.353 72.2319C364.469 68.5889 364.595 64.1922 364.972 59.9211Z" fill="black"/>
<path d="M361.457 52.6353C363.089 53.0121 364.721 53.389 366.353 53.7658C366.729 53.8915 367.231 54.0171 367.483 54.2683C367.608 54.5196 367.608 54.7708 367.734 55.0221C367.985 57.9113 367.231 60.8006 366.98 63.6899C366.729 66.5792 367.106 69.8453 369.366 71.7296C371.751 73.7396 375.266 73.7396 377.777 75.4983C380.413 77.3826 381.166 81.0256 381.543 84.2917C381.669 86.1761 381.794 88.186 381.418 90.0703C380.413 94.8439 379.158 107.029 374.764 109.165C370.37 111.426 362.963 103.889 358.067 104.14C351.539 104.517 344.885 104.14 338.357 102.758C337.102 102.507 335.595 102.004 334.842 100.999C333.712 99.6175 333.963 97.6076 334.214 95.8489C334.967 89.5678 335.093 83.0355 334.34 76.7545C334.214 75.4983 334.089 73.9908 335.093 73.2371C335.595 72.8602 336.097 72.7346 336.725 72.609C339.487 71.9809 342.249 71.4784 345.136 70.8503C347.521 70.3478 348.4 69.971 350.283 68.4635C352.166 66.8304 352.794 65.323 353.045 62.9362C353.296 60.5494 353.171 56.027 352.543 53.6402L361.457 52.6353Z" fill="#DC8A7A"/>
<path d="M354.175 60.6748C354.426 60.926 366.101 60.6748 366.101 60.6748C366.101 60.6748 364.595 66.8302 360.075 66.8302C354.049 66.8302 354.175 60.6748 354.175 60.6748Z" fill="#BA6355"/>
<path d="M348.651 45.6004C349.028 43.2136 348.275 39.445 348.651 37.0582C349.907 27.1341 359.699 27.511 364.093 27.8878C365.097 28.0134 366.352 28.2647 366.729 29.2696L366.855 28.8928C370.495 34.9226 373.257 42.083 372.253 49.2434C371.123 57.1575 368.361 60.9261 363.967 63.9411C362.586 64.8204 361.456 64.8204 359.448 64.5692C357.69 64.4435 355.054 64.3179 350.911 56.4038C349.153 53.012 348.4 47.1078 348.651 45.6004Z" fill="#DC8A7A"/>
<path d="M342.751 51.2535C344.132 47.9873 341.998 43.7162 342.123 41.5807C342.123 39.1939 342.625 36.8071 343.63 34.6715C345.262 31.1541 345.89 27.6367 352.418 28.2648C353.548 28.3905 352.669 28.2648 352.794 28.3905C352.92 28.1392 353.045 27.888 353.045 27.6367C353.171 27.2599 353.799 27.3855 353.799 27.7623C353.799 29.7723 357.439 30.1491 355.682 30.9029C351.162 33.0384 351.664 37.9377 349.656 43.3394C348.024 47.6105 347.27 51.2535 342.751 53.0122C341.37 53.389 342.249 52.5097 342.751 51.2535Z" fill="black"/>
<path d="M388.071 81.2768C385.811 78.6387 384.179 75.6238 383.552 72.2321C382.924 68.589 383.552 64.8204 383.677 61.0518C383.803 57.9113 383.426 54.8964 382.798 51.8814C382.422 50.1228 381.92 48.3641 381.041 46.731C380.915 45.6004 380.79 44.5954 380.539 43.5905C380.539 43.5905 380.539 43.5905 380.539 43.4648C380.539 43.3392 380.539 43.3392 380.539 43.2136C380.413 42.8367 380.413 42.4599 380.287 42.083C378.781 35.6763 375.266 29.0184 369.742 25.3754C365.725 21.6068 359.573 20.4762 354.301 24.3704C351.539 26.3804 350.032 29.3953 352.543 31.2796C352.543 31.4052 352.668 31.5308 352.794 31.6565C354.677 33.0383 356.686 32.9127 358.694 33.6664C360.452 34.2945 361.958 35.5507 363.465 36.6813C365.599 38.3144 367.859 40.0731 370.621 39.9475C372.002 42.5855 371.876 45.9773 372.504 48.8665C373.257 52.1327 374.764 55.022 374.262 58.2881C373.759 61.303 372.253 64.0667 371.751 67.2072C371.625 67.7097 372.378 67.9609 372.629 67.5841C375.391 63.9411 379.032 61.303 380.413 56.7807C381.166 54.3939 381.417 51.6302 381.292 48.9922C381.794 50.374 382.171 51.7558 382.422 53.1377C383.175 56.5294 383.175 60.0468 383.049 63.5642C382.798 66.956 382.547 70.3477 383.426 73.6139C384.305 76.5032 385.811 79.2668 388.071 81.4024C388.071 81.528 388.197 81.4024 388.071 81.2768ZM362.712 34.1689C362.586 34.0433 362.335 33.9176 362.21 33.792C362.335 33.792 362.461 33.792 362.461 33.792C365.474 34.2945 367.859 36.1788 369.742 38.3144C369.868 38.6912 370.119 38.9425 370.244 39.3193C367.357 38.5656 364.971 35.9276 362.712 34.1689Z" fill="black"/>
<path d="M356.058 44.8465C356.058 44.8465 355.556 44.5953 354.803 44.4696C354.677 44.4696 354.05 43.9672 354.05 43.8415C353.924 43.5903 353.798 43.7159 353.798 43.9672C353.798 44.2184 353.924 44.344 353.924 44.4696H353.798C353.673 44.4696 352.92 44.344 352.669 43.8415C352.543 43.5903 352.417 43.8415 352.543 43.9672C352.543 44.0928 352.794 44.344 352.92 44.4696C352.669 44.4696 352.166 44.344 351.915 44.344C351.79 44.344 351.664 44.4696 351.79 44.5953C352.292 45.0977 352.794 45.349 353.547 45.349C353.798 45.349 353.924 45.349 354.175 45.2234C354.05 45.349 354.05 45.6002 354.05 45.7259C353.924 46.4796 354.552 46.7308 355.305 46.7308C355.933 46.7308 356.309 46.354 356.56 46.1027C357.188 45.6002 356.686 45.2234 356.058 44.8465Z" fill="black"/>
<path d="M363.967 44.972C363.967 44.972 364.47 44.7208 365.223 44.5951C365.348 44.5951 365.976 44.0926 365.976 43.967C366.102 43.7158 366.227 43.8414 366.227 44.0926C366.227 44.3439 366.102 44.4695 366.102 44.5951H366.227C366.353 44.5951 367.106 44.4695 367.357 43.967C367.483 43.7158 367.608 43.967 367.483 44.0926C367.483 44.2183 367.231 44.4695 367.106 44.5951C367.357 44.5951 367.859 44.4695 368.11 44.4695C368.236 44.4695 368.361 44.5951 368.236 44.7208C367.734 45.2232 367.231 45.4745 366.478 45.4745C366.227 45.4745 366.102 45.4745 365.85 45.3489C365.976 45.4745 365.976 45.7257 365.976 45.8513C366.102 46.6051 365.474 46.8563 364.721 46.8563C364.093 46.8563 363.716 46.4794 363.465 46.2282C362.838 45.7257 363.34 45.3489 363.967 44.972Z" fill="black"/>
<path d="M369.994 42.5853C367.985 42.0828 365.725 42.4597 363.842 43.339C363.465 43.4646 362.461 42.334 362.712 42.2084C365.097 40.9522 367.859 40.8266 370.119 42.334C370.496 42.334 369.994 42.5853 369.994 42.5853Z" fill="black"/>
<path d="M361.08 49.6201C361.205 50.2482 361.582 51.3788 361.456 52.0069C361.205 53.1375 359.699 52.7606 358.82 52.635C358.569 52.635 358.443 53.0119 358.694 53.0119C359.573 53.3887 361.582 53.5144 361.959 52.3838C362.21 51.8813 361.707 49.8714 361.08 49.6201Z" fill="#4E352D"/>
<path d="M357.062 57.0316C358.695 58.6647 362.21 58.7903 363.465 56.5291C363.591 56.4035 363.34 56.1523 363.34 56.2779C362.586 57.2829 361.08 57.5341 360.075 57.5341C358.946 57.5341 358.067 57.1572 357.062 56.906V57.0316Z" fill="#4E352D"/>
<path d="M350.032 42.2083C352.292 41.7058 354.552 42.0827 356.686 42.9621C357.063 43.0877 358.067 41.9571 357.816 41.8315C355.305 40.5753 352.167 40.4496 349.781 41.9571C349.53 41.9571 350.032 42.2083 350.032 42.2083Z" fill="black"/>
<path d="M345.638 71.3525C345.889 71.855 353.924 90.0701 354.928 90.1957C355.807 90.3213 361.833 85.0452 361.833 85.2965C361.833 85.5477 358.946 97.6073 357.439 97.733C355.807 97.8586 357.565 106.778 352.041 97.1049C346.517 87.432 345.638 82.9097 345.638 82.5328C345.638 82.1559 345.638 71.3525 345.638 71.3525Z" fill="#BA6355"/>
<path d="M332.331 150.368L332.08 155.267C332.08 155.267 331.327 156.398 331.327 156.9C331.327 157.403 328.188 182.15 328.188 182.15C328.188 182.15 344.759 208.279 366.101 202.626C387.443 196.973 384.807 196.722 384.807 196.722C384.807 196.722 384.305 189.185 385.811 181.396C388.322 168.834 390.205 160.92 384.305 150.493C380.288 143.459 332.331 150.368 332.331 150.368Z" fill="#366ED8"/>
<path d="M382.171 128.008C382.798 140.068 387.192 147.856 385.686 151.625C384.556 154.514 336.599 155.519 331.578 150.243C331.075 149.74 334.842 140.444 333.837 128.259C333.837 127.505 334.465 127.129 335.093 126.752C335.469 126.501 335.972 126.501 336.348 126.501C340.24 126.375 344.132 126.249 348.149 126.501C352.668 126.752 357.062 128.385 361.582 128.134C362.084 128.008 382.171 128.008 382.171 128.008Z" fill="#28EDCA"/>
<path d="M335.093 133.033C335.093 133.033 334.591 137.304 342.123 136.299C349.53 135.294 356.937 133.033 361.457 134.917C366.102 136.927 369.491 138.686 374.011 138.058C378.53 137.43 382.045 131.902 382.045 131.902C382.045 131.902 372.504 128.636 367.106 128.385C361.708 127.757 335.093 133.033 335.093 133.033Z" fill="#17B599"/>
<path d="M338.859 72.4834C335.595 72.8603 332.457 73.1115 329.192 73.4884C327.812 73.614 326.305 73.8652 325.175 74.619C323.669 75.6239 323.041 77.3826 322.413 79.1413C321.534 82.1562 320.907 85.1711 320.53 88.3116C320.154 91.4522 320.279 94.7183 319.651 97.8588C319.275 100.497 319.024 104.517 318.521 107.029C317.266 113.687 317.266 118.963 318.27 125.621C318.396 126.877 318.647 128.259 319.526 129.138C320.405 130.143 321.786 130.52 323.041 130.897C338.106 134.791 347.773 132.907 363.089 130.897C364.469 130.646 364.721 127.505 362.335 126.752C352.166 122.983 345.889 122.229 336.85 116.2C336.223 115.823 335.721 115.446 335.218 114.818C334.716 114.19 334.465 113.31 334.34 112.556C331.452 99.9944 335.846 87.0554 335.972 74.2421" fill="#DC8A7A"/>
<path d="M334.716 89.1904C334.842 88.8136 334.967 88.4367 335.344 88.1855C335.972 87.5574 337.102 87.9342 337.855 88.4367C338.985 89.1904 339.738 90.1954 340.617 91.2004C342.876 93.4616 345.889 94.8434 348.902 95.7227C352.041 96.6021 355.179 96.7277 358.443 96.8533C365.223 96.9789 372.253 96.4765 377.902 92.8334L377.777 92.9591C378.781 93.7128 379.409 94.969 379.534 96.2252C379.66 97.4814 379.66 98.9889 379.409 100.245C378.53 105.019 377.275 109.667 376.396 114.44C376.27 115.194 376.145 115.948 375.643 116.45C375.14 116.953 374.513 117.33 373.76 117.581C371.123 118.46 368.236 118.837 365.474 118.963C357.439 119.465 349.153 119.214 341.37 117.204C338.859 116.576 336.223 115.696 334.716 113.561C333.837 112.43 333.461 110.923 333.21 109.541C332.08 102.632 332.457 95.5971 334.716 89.1904Z" fill="#28EDCA"/>
<path d="M352.543 21.858C352.669 21.7323 352.794 21.6067 352.92 21.3555C352.794 21.4811 352.669 21.7323 352.543 21.858Z" fill="#353A42"/>
<path d="M346.894 65.4482C346.894 65.5739 346.894 65.5739 346.894 65.4482C346.768 65.5739 346.768 65.5739 346.894 65.5739C346.894 65.5739 346.894 65.5739 346.894 65.4482Z" fill="#353A42"/>
<path d="M362.084 126.626C351.915 122.857 345.638 122.103 336.599 116.073C335.972 115.697 335.47 115.32 334.967 114.692C334.465 114.064 334.214 113.184 334.089 112.43C333.461 109.416 333.084 106.401 333.084 103.386C332.833 103.511 332.708 103.511 332.708 103.511C332.708 103.637 332.08 104.768 331.327 106.401C331.578 108.913 331.201 111.551 330.197 113.687C329.444 115.571 328.69 117.33 329.067 119.465C329.695 122.103 331.703 122.983 334.089 123.359C337.98 123.988 342.374 124.49 346.015 126.123C347.898 127.002 355.556 128.133 361.708 130.771C361.959 130.771 362.21 130.645 362.461 130.645C364.093 130.645 364.344 127.505 362.084 126.626Z" fill="#BA6355"/>
<path d="M377.902 76.7539C380.664 77.382 383.426 78.0101 386.314 78.6382C389.075 79.2663 392.088 80.0201 393.971 82.1556C396.733 85.1705 396.357 89.9441 395.855 94.0896C395.101 99.4913 394.348 105.019 393.595 110.42C393.218 112.807 392.967 115.32 392.088 117.581C391.335 119.591 390.331 121.475 389.201 123.234C387.946 125.369 386.69 127.505 385.435 129.64C384.807 130.645 384.305 131.65 383.3 132.278C382.422 132.781 381.543 133.409 380.539 133.535C373.634 134.54 366.478 132.907 360.327 129.64C358.694 128.761 357.062 127.756 355.43 126.751C353.422 125.62 351.413 124.741 349.404 123.862C345.262 121.977 342.249 119.214 338.106 117.204C337.101 116.701 335.846 115.822 335.093 114.943C334.465 113.938 332.959 112.053 333.837 111.3C337.352 110.043 344.132 111.174 345.889 113.31C346.015 113.435 352.543 114.063 355.43 114.189C361.582 114.566 367.733 114.943 373.885 114.44C374.387 114.44 374.889 114.315 375.266 114.063C375.643 113.812 375.768 113.31 375.894 112.933C379.283 103.009 380.79 92.4565 380.288 82.03" fill="#DC8A7A"/>
<path d="M345.262 70.5993C345.262 70.5993 353.296 93.8391 354.426 93.5879C355.556 93.3367 371.249 73.1117 371.249 73.1117L386.314 77.7596C386.314 77.7596 394.474 78.8902 395.855 84.7944C396.608 88.0606 397.487 100.12 398.24 103.135C398.993 106.276 377.149 110.295 377.149 110.295L341.872 107.532L332.582 106.15C332.582 106.15 316.764 101.376 317.266 99.9946C317.768 98.6127 321.409 76.7547 323.92 74.8704C326.431 72.986 339.612 71.9811 339.612 71.9811L345.011 69.0918L345.262 70.5993Z" fill="#28EDCA"/>
<path d="M375.643 78.7644C376.647 80.6487 377.275 84.0405 376.271 86.0504C376.145 86.4273 376.647 86.6785 376.898 86.4273C378.656 84.1661 378.279 79.7694 376.898 77.3826C376.522 76.7545 376.02 76.252 375.517 75.7495C376.522 76.5032 377.526 77.5082 378.154 78.6388C378.907 80.0206 379.409 81.6537 379.535 83.2868C379.535 83.9149 379.535 84.6686 379.535 85.2967C379.284 89.4422 377.275 93.5877 374.011 95.5976C373.509 95.9745 374.136 96.7282 374.513 96.3513C376.145 95.2207 377.526 93.8389 378.53 92.3315C378.028 93.7133 377.4 95.2207 376.647 96.477C376.522 96.6026 376.522 96.7282 376.647 96.8538C376.647 96.9794 376.773 97.2307 377.024 97.2307C383.552 97.4819 386.314 90.6984 386.439 85.0454C386.69 77.885 383.426 71.9809 377.652 67.7097C376.898 67.2073 376.02 68.0866 376.522 68.8403C377.903 70.4734 379.284 71.9809 380.539 73.3627C380.037 73.4883 379.66 73.8652 379.786 74.3677C379.786 74.3677 379.786 74.3677 379.66 74.3677C379.535 74.1164 379.409 73.8652 379.158 73.6139C378.907 73.2371 378.53 73.1114 378.279 73.2371C377.024 72.3577 375.517 71.604 373.885 71.3528C373.383 71.2271 372.881 71.604 372.881 72.1065C372.504 71.8552 372.128 71.4784 371.877 71.2271C371.877 71.1015 371.751 70.9759 371.751 70.7246C371.626 70.2222 371.249 69.9709 370.872 69.9709C370.747 69.7197 370.621 69.5941 370.496 69.3428C370.245 68.7147 369.366 69.0916 369.491 69.7197C369.491 69.8453 369.617 69.9709 369.617 70.0965C369.24 69.2172 368.864 68.2122 368.738 67.0816C368.487 65.9511 366.73 66.0767 366.855 67.3329C367.232 70.3478 368.613 73.1114 370.998 74.9958C372.504 76.0007 374.639 76.7545 375.643 78.7644Z" fill="black"/>
<path d="M377.275 110.17C377.275 110.17 387.82 110.296 390.08 111.677C390.08 111.677 391.21 112.431 392.089 110.17C392.968 107.909 393.219 106.401 393.219 106.401L377.275 110.17Z" fill="#BA6355"/>
<path d="M331.327 109.918C331.327 109.918 331.452 106.904 327.686 106.275C323.92 105.647 321.535 104.894 321.535 104.894L321.786 102.507L332.457 106.275C332.457 106.15 333.084 110.798 331.327 109.918Z" fill="#BA6355"/>
<path d="M404.768 216.947H392.339V306.138H404.768V216.947Z" fill="#B7B7B7"/>
<path d="M404.768 216.947H392.339V248.101H404.768V216.947Z" fill="#F2F3F3"/>
<path d="M127.95 216.947H115.521V306.138H127.95V216.947Z" fill="#B7B7B7"/>
<path d="M127.699 216.947H115.271V248.101H127.699V216.947Z" fill="#F2F3F3"/>
<path d="M392.716 221.596H127.573V306.264H392.716V221.596Z" fill="#999999"/>
<path d="M423.223 194.963C422.721 178.884 350.786 165.819 262.279 165.819C173.773 165.819 101.838 178.884 101.21 194.963V199.611C101.587 215.691 173.522 228.755 262.154 228.755C350.786 228.755 422.721 215.691 423.223 199.611V194.963Z" fill="#D8D8D8"/>
<path d="M262.279 223.605C174.4 223.605 103.093 210.792 101.335 194.964C101.335 195.089 101.335 209.159 101.335 209.159C101.335 225.113 173.647 239.685 262.405 239.685C351.037 239.685 423.474 223.982 423.474 210.541C423.474 210.541 423.474 195.089 423.474 194.964C421.465 210.792 350.032 223.605 262.279 223.605Z" fill="#B7B7B7"/>
<path d="M411.673 194.336C411.673 206.898 346.392 217.199 262.279 217.199C178.167 217.199 112.383 207.275 112.383 194.336C112.383 180.643 178.041 171.473 262.154 171.473C346.266 171.473 411.673 180.517 411.673 194.336Z" fill="#F2F3F3"/>
<path d="M211.435 140.821L223.864 136.927L226.374 166.573L213.946 167.327L211.435 140.821Z" fill="#BB8574"/>
<path d="M247.591 178.256C248.219 178.256 248.219 177.377 247.591 177.377C246.963 177.377 246.963 178.256 247.591 178.256Z" fill="#DEAC91"/>
<path d="M262.907 153.634C262.907 153.634 264.79 152.755 265.794 155.016C266.798 157.277 265.669 163.056 262.279 164.94C258.764 166.699 262.907 153.634 262.907 153.634Z" fill="#DEAC91"/>
<path d="M154.188 179.638L192.101 183.909C192.101 183.909 195.365 184.663 198.378 184.537C201.391 184.412 207.92 183.155 207.92 183.155C207.92 183.155 216.205 180.517 210.681 179.01C205.158 177.502 182.937 172.854 182.937 172.854L154.188 179.638Z" fill="#BD8C98"/>
<path d="M143.517 151.876C143.517 151.876 149.92 152.378 152.054 152.252C153.937 152.252 160.089 151.75 160.089 151.75C160.089 151.75 160.967 158.408 159.712 162.679C159.461 163.433 165.738 164.312 173.27 166.825C179.547 168.96 196.998 173.985 196.998 173.985C196.998 173.985 197.751 180.768 193.859 181.522C189.967 182.276 164.231 180.266 157.829 180.266C151.426 180.266 146.53 177 145.275 174.99C144.019 173.106 145.275 172.603 145.149 170.719C145.024 167.829 143.517 151.876 143.517 151.876Z" fill="#BB8574"/>
<path d="M186.703 181.397C186.703 181.397 189.716 181.648 190.093 182.025C190.469 182.402 193.733 184.286 197.249 183.407C200.764 182.653 201.643 181.271 203.777 181.774C205.911 182.15 208.171 183.784 208.171 183.784C208.171 183.784 209.426 184.035 210.43 183.03C211.184 182.276 213.067 180.769 214.197 179.638C215.829 177.879 214.322 176.874 214.322 176.874C214.322 176.874 210.681 172.478 210.179 171.85C209.677 171.221 208.422 170.091 207.543 170.091C206.664 170.216 204.404 171.347 203.651 171.347C202.898 171.347 196.495 173.106 194.487 171.975C193.231 171.221 192.101 172.226 191.223 172.226C190.344 171.975 186.703 181.397 186.703 181.397Z" fill="#BB8574"/>
<path d="M211.435 179.512C210.807 179.386 210.054 179.638 209.426 179.638C208.045 179.512 206.79 179.135 205.534 178.758C204.279 178.256 202.898 177.628 201.517 177.502C199.76 177.376 198.128 178.13 196.496 178.758C193.608 179.638 190.218 179.512 187.331 178.633C183.941 177.628 180.803 176.874 177.288 176.874C173.898 176.874 170.634 177.125 167.244 177.251C164.106 177.377 160.591 177.753 157.452 176.874C154.816 176.12 153.058 174.11 150.799 172.729C149.418 171.849 147.911 171.347 146.279 171.347C145.902 171.347 145.526 171.472 145.275 171.472C145.149 172.854 144.396 173.357 145.4 175.115C146.656 177 151.552 180.391 157.954 180.391C162.599 180.391 177.413 181.396 186.703 181.648C186.703 181.648 189.716 181.899 190.093 182.276C190.47 182.653 193.734 184.537 197.249 183.658C200.764 182.904 201.643 181.522 203.777 182.024C205.911 182.401 208.171 184.034 208.171 184.034C208.171 184.034 209.426 184.286 210.431 183.281C210.933 182.778 212.063 181.773 213.067 180.894C212.816 180.015 212.314 179.638 211.435 179.512Z" fill="#996559"/>
<path d="M160.214 151.75C160.214 152.127 159.963 157.026 153.686 157.026C146.405 157.026 145.4 152.001 145.4 152.001C145.4 152.001 149.041 152.252 153.686 152.252C155.569 152.127 158.08 151.876 160.214 151.75Z" fill="#996559"/>
<path d="M223.989 120.596C224.114 120.094 224.24 119.591 224.491 119.214C224.742 118.712 225.119 118.209 225.495 117.832C225.997 117.204 226.625 116.576 227.127 115.948C227.378 115.571 226.876 115.194 226.625 115.446C224.993 116.325 223.11 118.712 223.487 120.722C223.612 120.847 223.989 120.847 223.989 120.596Z" fill="#3A3326"/>
<path d="M329.192 172.98C327.058 173.231 304.21 175.241 301.573 175.493C298.937 175.744 288.517 177.126 285.63 177.377C282.742 177.628 278.348 177.503 276.465 176.498C274.582 175.493 270.314 177.126 268.556 176.749C266.798 176.372 262.028 173.483 262.656 171.347C263.283 169.337 267.928 166.322 268.807 166.322C269.686 166.322 286.508 167.955 286.508 167.955L329.192 172.98Z" fill="#BD8C98"/>
<path d="M274.959 95.7229H274.833C274.08 95.7229 273.452 95.0948 273.452 94.3411V87.1807C273.452 86.4269 274.08 85.7988 274.833 85.7988H274.959C275.712 85.7988 276.34 86.4269 276.34 87.1807V94.3411C276.34 95.0948 275.712 95.7229 274.959 95.7229Z" fill="#545152"/>
<path d="M302.954 95.7229H302.829C302.075 95.7229 301.448 95.0948 301.448 94.3411V87.1807C301.448 86.4269 302.075 85.7988 302.829 85.7988H302.954C303.707 85.7988 304.335 86.4269 304.335 87.1807V94.3411C304.461 95.0948 303.833 95.7229 302.954 95.7229Z" fill="#545152"/>
<path d="M306.595 87.9344C306.595 87.9344 295.798 89.1906 288.015 89.1906C279.478 89.1906 270.063 87.9344 270.063 87.9344C267.677 87.5576 267.426 85.6732 267.175 84.1658C267.175 84.1658 266.547 81.1509 266.547 79.0153C266.547 77.3823 266.924 75.1211 267.175 73.9905C267.677 72.1062 268.054 70.3475 270.063 69.845C270.063 69.845 278.725 68.2119 288.391 68.2119C295.798 68.2119 306.72 69.845 306.72 69.845C308.604 70.2218 308.98 71.4781 309.608 73.8649C309.608 73.8649 310.361 76.6285 310.361 79.2666C310.361 82.5327 309.608 84.5427 309.608 84.5427C308.98 86.1757 308.478 87.5576 306.595 87.9344Z" fill="#00232A"/>
<path d="M255.124 131.777C255.375 129.641 253.994 104.14 253.994 104.14C253.994 104.14 254.245 99.492 260.898 96.4771C268.556 93.0853 306.595 91.9547 318.773 97.9845C318.773 97.9845 323.167 100.623 323.418 103.763C323.543 105.396 322.037 131.777 322.037 131.777H255.124Z" fill="#00232A"/>
<path d="M264.539 166.323C264.539 166.323 266.924 142.831 266.296 143.083C265.669 143.334 252.864 142.957 252.864 142.957L249.851 165.066L264.539 166.323Z" fill="#DCBFB0"/>
<path d="M279.855 90.6982C279.855 90.6982 280.985 98.8636 278.349 102.13C278.349 102.13 281.236 110.421 289.145 110.421C297.556 110.421 300.067 101.879 300.067 101.879C300.067 101.879 298.561 95.2206 298.561 90.6982C298.561 90.6982 279.73 90.6982 279.855 90.6982Z" fill="#DCBFB0"/>
<path d="M322.288 168.081C320.907 159.036 321.032 150.619 321.032 148.861C321.032 148.358 327.309 146.599 336.097 144.966C336.474 144.841 337.227 144.841 337.102 144.213C334.967 130.771 326.556 113.059 326.431 111.3C326.305 107.657 323.292 107.783 322.539 107.908C322.413 107.908 322.288 107.908 322.288 107.908C322.288 107.908 307.976 104.014 302.201 101.627C301.95 101.502 301.699 99.4916 299.69 99.6172C299.69 99.6172 298.184 107.783 289.27 107.783C279.729 107.783 279.604 99.6172 279.604 99.6172C276.967 99.2403 278.097 101.376 274.08 102.632C271.569 103.386 258.513 108.034 257.006 108.034C254.872 107.908 252.738 111.677 252.738 112.305C252.738 112.431 252.738 113.436 252.738 113.436L243.574 142.454C243.448 143.082 243.95 143.333 244.578 143.459C247.591 144.338 260.271 147.228 262.907 146.976C263.409 146.976 263.786 147.228 263.911 147.73C264.162 149.237 262.907 156.9 263.535 165.694C263.786 169.462 322.664 170.091 322.288 168.081Z" fill="#43989D"/>
<path d="M292.409 150.871C291.656 143.082 288.768 135.796 284.249 129.39C279.98 123.234 274.08 118.461 272.95 110.546C272.573 108.034 272.699 105.522 272.95 103.135C268.556 104.642 258.764 108.034 257.508 108.034C255.374 107.908 253.24 111.677 253.24 112.305C253.24 112.431 253.24 113.436 253.24 113.436L244.076 142.454C243.95 143.082 244.452 143.333 245.08 143.459C248.093 144.338 260.772 147.228 263.409 146.977C263.911 146.977 264.288 147.228 264.413 147.73C264.664 149.238 263.409 156.901 264.037 165.694C264.162 167.83 280.106 168.96 295.422 169.337C292.66 163.307 293.037 157.152 292.409 150.871Z" fill="#47AEB4"/>
<path d="M281.989 93.3369C281.989 93.3369 287.388 99.7436 296.301 93.8394C296.301 93.8394 294.92 100.246 289.396 100.246C283.998 100.246 281.989 93.3369 281.989 93.3369Z" fill="#B89787"/>
<path d="M305.466 70.7248H302.829C303.457 66.2024 304.085 61.3032 304.085 61.3032C304.085 61.3032 300.444 55.7759 289.773 55.7759C279.102 55.7759 275.085 60.2982 275.085 60.2982L276.089 70.7248H273.327C273.327 70.7248 271.318 71.4785 271.318 74.4934C271.318 77.3827 273.578 82.1563 276.968 80.272L277.721 87.8092C277.721 87.8092 281.487 97.2308 287.137 97.2308C288.015 97.2308 289.647 97.2308 290.652 97.2308C295.799 97.2308 300.569 88.563 300.569 88.1861C300.569 88.0605 300.82 86.1762 301.574 80.1464C301.574 80.1464 301.699 80.1464 301.699 80.272C305.214 82.2819 307.474 77.5083 307.474 74.619C307.474 71.7297 305.466 70.7248 305.466 70.7248Z" fill="#DCBFB0"/>
<path d="M273.578 72.483C273.327 73.3624 273.829 76.5029 276.34 74.9954C276.34 74.9954 277.846 73.6136 277.093 72.2318C276.214 70.8499 273.955 71.1012 273.578 72.483Z" fill="#B89787"/>
<path d="M305.465 72.483C305.716 73.3624 305.214 76.5029 302.703 74.9954C302.703 74.9954 301.197 73.6136 301.95 72.2318C302.829 70.8499 304.963 71.1012 305.465 72.483Z" fill="#B89787"/>
<path d="M296.175 72.7344C296.175 73.4881 295.548 74.1162 294.795 74.1162C294.041 74.1162 293.414 73.4881 293.414 72.7344C293.414 71.9806 294.041 71.3525 294.795 71.3525C295.548 71.3525 296.175 71.9806 296.175 72.7344Z" fill="#3A3326"/>
<path d="M285.504 72.7344C285.504 73.4881 284.876 74.1162 284.123 74.1162C283.37 74.1162 282.742 73.4881 282.742 72.7344C282.742 71.9806 283.37 71.3525 284.123 71.3525C284.876 71.3525 285.504 71.9806 285.504 72.7344Z" fill="#3A3326"/>
<path d="M288.643 74.8706C288.266 76.2525 287.89 77.6343 287.387 79.0161C287.136 79.7699 286.258 81.1517 286.76 82.031C287.639 83.2873 290.777 83.036 291.405 81.6542C291.53 81.1517 291.028 80.9005 290.652 81.0261C289.898 81.4029 289.271 81.6542 288.392 81.4029C287.513 81.2773 287.764 80.9005 287.89 80.0211C288.266 78.2624 288.643 76.6293 289.02 74.8706C289.02 74.745 288.643 74.6194 288.643 74.8706Z" fill="#B89787"/>
<path d="M278.976 69.4684C278.976 69.4684 282.742 69.4684 284.625 71.3527C285.253 71.9808 288.015 71.6039 287.764 69.3428C287.764 68.9659 284.625 68.7147 284.374 68.589C284.123 68.4634 281.361 68.589 281.361 68.589L278.976 69.4684Z" fill="#B89787"/>
<path d="M287.764 69.2174C286.508 68.3381 284.625 67.71 282.993 67.71C281.236 67.71 279.98 68.2124 278.725 69.0918C278.474 69.343 278.85 69.5943 279.102 69.4687C281.487 68.4637 284.123 68.9662 286.257 70.2224C286.508 70.4736 288.015 69.343 287.764 69.2174Z" fill="#3A3326"/>
<path d="M285.379 78.0116H281.11C279.98 78.0116 278.976 77.0066 278.976 75.8761V75.6248C278.976 74.4942 279.98 73.4893 281.11 73.4893H285.379C286.509 73.4893 287.513 74.4942 287.513 75.6248V75.8761C287.513 77.0066 286.509 78.0116 285.379 78.0116Z" fill="white"/>
<path d="M285.253 78.388H281.11C279.604 78.388 278.474 77.2574 278.474 75.75V75.6244C278.474 74.1169 279.604 72.9863 281.11 72.9863H285.253C286.76 72.9863 287.89 74.1169 287.89 75.6244V75.75C287.89 77.2574 286.76 78.388 285.253 78.388ZM281.11 73.8657C280.106 73.8657 279.353 74.6194 279.353 75.6244V75.75C279.353 76.755 280.106 77.5087 281.11 77.5087H285.253C286.258 77.5087 287.011 76.755 287.011 75.75V75.6244C287.011 74.6194 286.258 73.8657 285.253 73.8657H281.11Z" fill="#3A3326"/>
<path d="M296.803 78.0116H292.535C291.405 78.0116 290.4 77.0066 290.4 75.8761V75.6248C290.4 74.4942 291.405 73.4893 292.535 73.4893H296.803C297.933 73.4893 298.937 74.4942 298.937 75.6248V75.8761C298.937 77.0066 297.933 78.0116 296.803 78.0116Z" fill="white"/>
<path d="M296.803 78.388H292.535C291.028 78.388 289.898 77.2574 289.898 75.75V75.6244C289.898 74.1169 291.028 72.9863 292.535 72.9863H296.678C298.184 72.9863 299.314 74.1169 299.314 75.6244V75.75C299.44 77.2574 298.184 78.388 296.803 78.388ZM292.535 73.8657C291.53 73.8657 290.777 74.6194 290.777 75.6244V75.75C290.777 76.755 291.53 77.5087 292.535 77.5087H296.678C297.682 77.5087 298.435 76.755 298.435 75.75V75.6244C298.435 74.6194 297.682 73.8657 296.678 73.8657H292.535Z" fill="#3A3326"/>
<path d="M287.764 76.001L287.136 75.3729C287.136 75.3729 288.015 74.6191 289.019 74.6191C289.647 74.6191 290.275 74.8704 290.777 75.3729L290.149 76.001C289.773 75.6241 289.522 75.4985 289.145 75.4985C288.392 75.4985 287.764 76.001 287.764 76.001Z" fill="#3A3326"/>
<path d="M286.006 87.9345C289.019 88.8138 293.413 89.3163 295.673 86.427C296.05 85.9245 295.296 85.422 294.92 85.6733C293.664 86.427 292.66 87.0551 291.279 87.3063C289.521 87.5576 287.889 87.5576 286.132 87.5576C285.881 87.5576 285.881 87.9345 286.006 87.9345Z" fill="#B89787"/>
<path d="M277.595 63.3133C277.721 62.9364 277.846 58.7909 277.846 58.7909C277.846 58.7909 277.218 56.5297 276.465 56.0273C274.08 54.3942 270.816 57.1578 270.565 58.4141C270.188 60.0471 272.322 63.062 272.95 63.8158C273.452 64.5695 274.708 70.7249 274.708 70.7249C274.708 70.7249 275.21 70.7249 275.837 71.1018C274.959 70.9762 274.205 71.353 273.829 72.2324C273.703 72.4836 273.703 73.1117 273.829 72.8605C274.331 71.8555 275.335 71.6043 276.214 71.9811C276.842 72.358 276.842 73.9911 276.465 73.4886C276.214 73.2373 275.837 73.1117 275.586 73.2373C275.461 73.2373 275.461 73.363 275.461 73.363C275.461 73.6142 275.837 73.7398 275.963 73.8654C276.089 73.9911 276.214 74.2423 276.214 74.4935C276.214 74.4935 276.214 74.4935 276.214 74.6192C275.963 74.996 275.712 75.3729 275.586 75.7498C275.461 76.5035 275.712 77.006 276.465 77.2572C276.967 77.5084 276.842 77.3828 276.591 77.006C275.461 75.7498 276.842 74.7448 277.093 73.8654C277.469 72.8605 277.218 72.2324 277.093 71.2274C277.093 71.1018 277.093 71.1018 277.093 71.1018L276.465 65.8257C276.34 65.8257 277.47 63.6901 277.595 63.3133Z" fill="black"/>
<path d="M301.197 63.3133C301.071 62.9364 300.946 59.2934 300.946 59.2934C300.946 59.2934 296.426 56.781 296.05 56.4041C295.548 55.776 298.184 55.1479 298.561 54.771C302.703 51.3793 306.721 56.4041 307.599 57.2834C307.725 57.4091 306.47 62.9364 305.967 63.6901C305.465 64.4438 304.21 70.5993 304.21 70.5993C304.21 70.5993 303.708 70.5993 303.08 70.9761C303.959 70.8505 304.712 71.2274 305.089 72.1067C305.214 72.358 305.214 72.9861 305.089 72.7348C304.586 71.7299 303.582 71.4786 302.703 71.8555C302.076 72.2323 302.076 73.8654 302.452 73.3629C302.703 73.1117 303.08 72.9861 303.331 73.1117C303.457 73.1117 303.457 73.2373 303.457 73.2373C303.457 73.4886 303.08 73.6142 302.954 73.7398C302.829 73.8654 302.703 74.1167 302.703 74.3679C302.703 74.3679 302.703 74.3679 302.703 74.4935C302.954 74.8704 303.206 75.2472 303.331 75.6241C303.457 76.3778 303.206 76.8803 302.452 77.1316C301.95 77.3828 302.076 77.2572 302.327 76.8803C303.457 75.6241 302.076 74.6191 301.825 73.7398C301.448 72.7348 301.699 72.1067 301.825 71.1018C301.825 70.9761 301.825 70.9761 301.825 70.9761L302.452 65.7001C302.452 65.8257 301.322 63.6901 301.197 63.3133Z" fill="black"/>
<path d="M298.309 57.6602C298.058 57.5345 295.296 61.0519 288.391 61.0519C281.738 61.0519 277.344 58.037 277.344 58.037L275.335 53.3891L273.578 48.9923C273.578 48.9923 281.236 44.5956 289.772 46.9824C300.569 49.9973 300.82 56.0271 300.82 56.0271L298.309 57.6602Z" fill="black"/>
<path d="M332.959 145.595L317.015 148.735C317.015 148.735 317.517 158.911 317.392 159.664C317.266 160.418 311.115 159.287 303.331 162.051C296.803 164.312 278.725 167.202 278.725 167.202C278.725 167.202 277.972 174.739 281.989 175.493C286.006 176.246 312.621 175.744 319.275 175.744C325.928 175.744 329.946 175.869 331.201 173.734C332.457 171.598 332.205 170.468 332.331 168.458C332.708 165.443 332.959 145.595 332.959 145.595Z" fill="#DCBFB0"/>
<path d="M287.262 175.996C287.262 175.996 283.872 175.744 283.37 176.121C282.868 176.498 278.976 177.88 275.335 176.498C271.695 174.991 271.946 173.483 269.561 173.609C267.175 173.734 264.413 174.991 264.413 174.991C264.413 174.991 263.032 175.116 262.154 173.86C261.526 172.981 259.643 170.845 258.638 169.463C257.132 167.202 258.89 166.323 258.89 166.323C258.89 166.323 263.535 162.177 264.162 161.549C264.79 160.921 266.296 160.042 267.301 160.167C270.063 160.419 277.972 166.825 280.232 165.569C282.115 164.564 284.249 166.574 286.132 166.197C286.885 165.82 287.262 175.996 287.262 175.996Z" fill="#DCBFB0"/>
<path d="M293.037 69.9712C293.037 69.9712 296.552 70.2225 297.305 70.8506C298.058 71.4787 300.318 70.8506 300.192 70.0968C300.067 69.2175 296.552 68.0869 296.301 68.0869C296.175 68.2125 293.037 69.9712 293.037 69.9712Z" fill="#B89787"/>
<path d="M291.782 68.7147C293.037 67.9609 294.92 67.5841 296.427 67.8353C298.059 67.9609 299.063 68.7147 300.193 69.8453C300.444 70.0965 300.067 70.3477 299.816 70.2221C297.808 68.9659 295.297 69.0915 293.162 69.9709C292.66 70.0965 291.53 68.9659 291.782 68.7147Z" fill="#3A3326"/>
<path d="M350.409 293.576L359.824 306.138H333.209L350.409 293.576Z" fill="#F2F3F3"/>
<path d="M193.733 306.264C193.733 292.32 198.253 288.928 197.876 285.913C195.617 263.553 185.448 174.111 185.448 174.111C185.448 174.111 184.192 162.679 194.236 159.162C200.136 157.152 217.963 152.881 233.781 152.253C257.006 151.373 272.197 156.398 272.197 156.398C272.197 156.398 280.231 157.906 279.855 166.197C279.729 170.091 280.859 211.043 281.863 244.835C282.616 269.583 300.82 306.013 300.82 306.013C300.82 306.013 193.733 306.39 193.733 306.264Z" fill="#00232A"/>
<path d="M254.495 295.335C254.495 295.335 261.4 305.887 273.075 305.887C284.751 305.887 294.041 294.707 294.041 294.707L298.183 306.013H331.577C331.577 306.013 316.638 260.915 308.98 257.9C301.447 254.885 273.828 272.849 268.179 281.516C263.66 288.3 254.495 295.335 254.495 295.335Z" fill="#152A51"/>
<path d="M289.521 274.608C292.283 269.08 286.759 270.337 286.759 270.337C286.759 270.337 266.171 295.838 250.352 297.094C250.352 297.094 246.335 302.244 251.482 302.119C256.629 301.993 263.409 306.39 273.201 305.887C284.876 305.259 294.166 294.707 294.166 294.707C294.166 294.707 286.759 280.135 289.521 274.608Z" fill="#0B1529"/>
<path d="M358.318 282.27C357.062 280.763 348.4 276.492 344.132 271.215C339.863 266.065 319.526 239.182 319.526 239.182C319.526 239.182 307.097 231.896 301.448 233.655C295.798 235.539 272.573 244.835 272.573 244.835L204.907 267.321C208.045 271.341 200.638 292.32 219.721 301.993C235.79 310.032 247.465 303.626 251.482 302.244C261.4 298.726 268.807 282.647 268.807 282.647C268.807 282.647 299.063 259.533 305.214 259.658C308.227 259.784 311.24 260.412 314.881 266.065C318.019 270.964 328.816 298.726 331.578 306.138H334.716C340.617 301.867 355.179 290.687 357.69 285.913C357.565 285.913 359.573 283.778 358.318 282.27Z" fill="#152A51"/>
<path d="M271.694 166.448C271.694 166.448 279.227 171.096 281.863 175.242C283.119 177.252 285.127 189.311 284.876 198.733C284.751 203.004 285.504 213.933 286.383 214.184C287.136 214.561 288.642 213.933 289.647 216.069C290.525 218.078 289.772 219.837 290.023 220.34C290.274 220.842 291.53 222.978 291.53 223.606C291.53 224.234 291.028 224.736 291.028 224.736C291.028 224.736 277.846 241.57 275.586 233.404C273.326 225.113 272.448 230.138 269.183 210.039C265.794 189.939 271.694 166.448 271.694 166.448Z" fill="#00232A"/>
<path d="M280.357 230.389C280.357 230.389 281.863 223.229 288.14 222.977C291.028 222.852 290.902 225.867 294.041 227.5C296.3 228.63 297.932 227.123 300.066 226.495C302.075 225.867 303.456 225.49 304.963 225.615C306.846 225.741 307.599 226.244 308.854 226.244C310.11 226.118 310.612 225.741 311.867 226.746C313.123 227.625 314.253 228.379 315.759 228.505C317.266 228.63 317.391 228.505 318.521 229.887C319.651 231.268 319.651 230.64 320.781 231.394C321.911 232.022 322.287 232.148 321.785 236.67C321.283 241.695 318.521 245.715 318.521 245.715C318.521 245.715 318.144 249.107 316.512 249.735L314.504 250.112C314.504 250.112 312.997 251.117 311.616 250.614C310.235 249.986 310.361 249.986 308.729 249.986C307.097 249.986 305.716 250.614 305.088 249.986C304.46 249.358 303.079 248.855 302.326 248.604C301.699 248.353 300.443 246.971 300.569 246.092C300.694 245.212 300.318 237.298 300.318 237.298C300.318 237.298 297.556 236.168 295.673 236.921C293.789 237.675 280.105 243.705 280.105 243.705L280.357 230.389Z" fill="#DEAC91"/>
<path d="M193.106 258.654C193.106 258.654 188.084 268.075 200.387 268.704C212.816 269.332 233.655 268.704 233.655 268.704H250.729C250.729 268.704 253.365 268.578 253.365 266.442C253.365 264.307 253.365 255.765 253.365 255.765L193.106 258.654Z" fill="black"/>
<path d="M213.695 116.074C214.824 122.858 214.95 130.646 212.439 134.792C209.928 138.937 207.543 140.947 207.041 145.595C206.539 150.117 213.192 149.741 212.188 152.755C211.184 155.519 205.283 158.785 203.777 162.428C202.145 166.197 204.907 169.966 208.045 169.337C208.045 169.337 218.716 163.936 222.357 160.293L226.751 157.78L229.513 136.174L224.491 123.235C224.491 123.235 213.192 112.934 213.695 116.074Z" fill="black"/>
<path d="M257.383 115.697C257.383 115.697 257.885 127.883 259.266 129.641C260.898 131.902 264.162 133.159 265.669 136.173C267.175 139.44 268.682 142.831 265.669 147.354C262.907 151.499 267.677 151.876 267.677 151.876C267.677 151.876 272.197 153.007 272.322 156.398C272.448 159.79 270.69 161.046 270.69 161.046L255.751 160.67C255.751 160.67 246.084 156.398 245.833 156.022C245.582 155.77 243.197 148.233 243.197 147.605C243.322 146.977 249.223 136.048 249.223 136.048C249.223 136.048 253.366 116.702 257.383 115.697Z" fill="black"/>
<path d="M191.85 190.692C191.85 190.692 191.599 177.879 199.383 172.98C207.166 168.08 227.378 158.031 227.378 158.031C227.378 158.031 247.841 153.257 263.157 160.794C263.157 160.794 272.322 163.181 275.837 172.98C279.352 183.155 277.218 200.993 279.98 219.836C282.616 237.926 286.257 240.061 281.235 242.825C272.95 247.222 208.296 263.05 208.296 263.05L191.85 190.692Z" fill="#00232A"/>
<path d="M222.231 160.293L219.595 162.177C219.595 162.177 227.127 179.89 228.634 201.873C230.517 229.133 228.885 244.836 228.885 244.836C228.885 244.836 252.235 248.856 270.439 243.705C275.335 242.323 261.023 224.234 262.906 208.908C265.668 186.799 264.036 180.769 258.638 172.729C253.993 165.946 254.621 157.404 248.72 157.152C240.058 156.775 222.231 160.293 222.231 160.293Z" fill="#28EDCA"/>
<path d="M223.236 152.63C223.11 153.509 222.734 159.916 222.231 160.544C221.729 161.172 224.617 168.584 239.682 165.946C252.738 163.685 249.976 159.79 249.976 159.79C249.976 159.79 248.469 154.137 247.842 151.876C247.214 149.866 245.456 149.866 235.413 150.243C225.495 150.746 223.361 151.248 223.236 152.63Z" fill="#43989D"/>
<path d="M222.859 130.771C222.859 132.279 226.374 142.957 225.244 153.132C225.119 154.765 230.015 158.157 237.673 157.278C246.586 156.273 245.958 153.006 245.958 153.006C245.958 153.006 245.582 150.368 245.958 146.6C246.21 142.831 222.859 130.771 222.859 130.771Z" fill="#DEAC91"/>
<path d="M221.98 119.591C221.98 119.591 217.461 117.078 216.08 119.842C215.075 121.852 215.075 126.877 217.335 129.389C219.595 131.776 223.11 133.535 224.868 129.64C225.998 127.254 221.98 119.591 221.98 119.591Z" fill="#DEAC91"/>
<path d="M244.326 150.243C240.058 150.368 232.149 149.614 228.383 142.077C228.383 142.077 227.755 151.122 236.166 152.629C243.197 153.886 244.326 150.243 244.326 150.243Z" fill="#BB8574"/>
<path d="M221.102 119.089C221.102 119.465 221.855 134.289 227.128 141.7C231.396 147.73 237.296 150.243 243.824 150.368C248.595 150.494 253.742 141.449 254.244 137.304C254.747 133.158 256.755 120.47 255.5 113.938C254.119 106.401 246.837 99.1148 236.166 100.245C225.495 101.376 221.478 110.295 221.102 119.089Z" fill="#DEAC91"/>
<path d="M230.642 101.125C230.642 101.125 251.357 111.928 256.002 119.089C256.002 119.089 256.504 116.828 257.508 117.581C257.634 117.581 258.261 114.818 258.387 113.561C258.889 109.29 256.504 92.457 243.573 90.6983C228.885 88.6884 225.244 95.9744 225.244 95.9744L230.642 101.125Z" fill="black"/>
<path d="M234.534 104.266C234.534 104.266 232.149 118.084 221.101 119.214C221.101 119.214 217.21 117.33 215.954 119.968C215.954 119.968 210.681 115.32 214.071 104.14C215.578 99.2407 220.097 94.9696 225.37 95.5977C236.92 96.9795 234.534 104.266 234.534 104.266Z" fill="black"/>
<path d="M357.816 285.537C353.171 290.687 345.638 292.069 341.621 292.32C337.604 292.446 321.283 264.935 315.759 261.04C310.236 257.272 306.218 259.784 306.218 259.784C308.855 260.035 311.491 261.166 314.755 266.191C317.894 271.09 328.69 298.852 331.452 306.264H334.591C340.491 301.993 355.054 290.813 357.565 286.039C357.565 286.039 357.941 285.662 358.192 285.16C358.192 285.16 358.067 285.285 357.816 285.537Z" fill="#0B1529"/>
<path d="M283.872 213.807C282.491 214.184 281.235 214.686 279.98 215.314H279.854C279.729 215.314 279.729 215.189 279.603 215.189C278.473 214.184 279.352 209.913 279.227 208.656C279.101 207.4 278.724 206.395 278.097 205.39C276.59 202.627 276.967 199.36 275.46 196.597C275.209 196.094 274.582 196.597 274.833 197.225C276.59 201.747 274.079 206.646 274.833 211.294C274.958 212.299 275.46 213.053 275.586 214.058C275.837 215.189 275.46 215.817 275.209 216.947C274.958 218.078 275.335 218.832 276.088 219.585C276.088 219.585 276.088 219.711 276.214 219.837C276.59 220.465 277.218 220.842 277.595 221.344C278.222 222.098 278.599 223.103 279.101 223.982C279.227 224.359 279.729 224.108 279.603 223.731C279.227 222.098 278.473 220.59 277.72 219.083C279.101 217.199 282.24 215.691 284.248 214.812C284.75 214.435 284.374 213.681 283.872 213.807ZM277.971 216.068L277.846 215.942C277.846 215.817 277.846 215.817 277.846 215.691C277.971 215.817 278.097 215.942 277.971 216.068C278.097 216.068 278.097 216.068 277.971 216.068Z" fill="#083D47"/>
<path d="M246.837 161.297C245.331 162.302 243.824 163.181 242.192 163.809C242.067 163.181 241.941 162.679 241.816 162.051C241.565 160.92 241.314 159.789 241.188 158.659C241.062 158.156 240.309 158.282 240.435 158.784C240.56 159.915 240.686 161.046 240.811 162.176C240.937 162.804 240.937 163.558 241.062 164.312C239.681 164.814 238.301 165.191 236.794 165.442C236.668 165.442 236.417 165.442 236.292 165.442C236.417 163.558 235.915 161.297 235.539 159.538C235.413 159.161 234.785 159.287 234.785 159.664C234.911 161.548 234.785 163.684 235.036 165.568C231.898 165.694 228.885 165.065 225.872 163.935C225.495 163.809 225.244 164.312 225.621 164.563C232.023 168.457 242.192 167.955 247.339 162.051C247.842 161.674 247.339 160.92 246.837 161.297Z" fill="#28EDCA"/>
<path d="M227.002 161.548C227.378 160.669 227.253 159.539 227.127 158.659C227.127 158.282 226.625 158.408 226.5 158.785C226.5 159.287 226.5 159.79 226.374 160.167C226.374 160.544 226.249 161.046 226.374 161.423C226.5 161.674 226.876 161.8 227.002 161.548Z" fill="#28EDCA"/>
<path d="M230.266 162.93C230.391 163.307 231.019 163.433 231.145 162.93C231.27 162.302 231.145 161.548 231.019 160.92C230.894 160.292 231.019 159.664 230.642 159.162C230.517 159.036 230.266 159.036 230.266 159.162C230.015 159.664 230.14 160.292 230.14 160.92C230.14 161.674 230.015 162.302 230.266 162.93Z" fill="#28EDCA"/>
<path d="M244.954 160.166C245.205 160.669 245.833 160.543 245.833 160.041C245.833 159.538 245.708 159.161 245.582 158.659C245.456 158.156 245.331 157.654 245.331 157.151C245.205 156.775 244.578 156.775 244.578 157.277C244.578 157.78 244.703 158.282 244.703 158.785C244.703 159.161 244.703 159.664 244.954 160.166Z" fill="#28EDCA"/>
<path d="M264.287 187.552C263.534 181.773 261.274 175.367 257.634 170.844C256.629 168.709 255.625 166.071 254.746 163.935C254.621 163.684 254.746 164.563 254.872 164.94C255.5 169.086 256.755 172.477 258.387 176.246C259.517 178.884 260.396 181.773 260.898 184.663C262.028 191.572 263.032 198.481 262.404 205.641C262.279 208.028 262.907 210.54 263.032 209.787C263.283 208.154 263.409 206.521 263.534 205.013C264.162 199.109 265.041 193.33 264.287 187.552Z" fill="#43989D"/>
<path d="M263.283 217.45C263.158 217.953 262.028 229.259 263.409 232.65C264.79 236.042 265.794 239.434 265.292 240.439C264.664 241.569 263.785 244.459 261.902 244.836C262.153 244.71 270.063 245.087 271.192 243.705C272.322 242.323 272.824 241.193 271.569 239.057C266.798 231.269 263.283 217.45 263.283 217.45Z" fill="#43989D"/>
<path d="M205.409 261.418C205.409 261.418 208.924 264.935 215.829 264.684C228.508 264.432 240.811 259.91 248.721 258.403C248.721 258.403 249.85 259.91 254.746 258.403C259.517 256.895 258.889 257.272 260.521 257.649C263.534 258.403 265.292 264.181 265.292 264.181C265.292 264.181 266.422 266.066 267.677 266.191C268.933 266.442 269.56 265.061 269.56 265.061C269.56 265.061 271.067 267.071 272.95 266.066C274.833 264.935 274.205 262.674 274.205 262.674C274.205 262.674 275.712 264.558 277.093 263.176C278.474 261.794 277.846 259.282 277.846 259.282C277.846 259.282 278.348 260.538 280.231 259.156C282.114 257.775 279.855 250.489 279.855 250.489L274.959 244.961C274.959 244.961 272.071 243.454 270.69 243.454C268.305 243.328 262.907 244.333 259.768 244.961C257.257 245.464 253.617 245.589 252.236 245.589C250.98 245.589 250.353 246.469 248.093 246.217C245.833 245.966 227.63 243.203 227.63 243.203C227.63 243.203 211.309 234.912 205.66 245.966C200.262 257.146 205.409 261.418 205.409 261.418Z" fill="#DEAC91"/>
<path d="M228.132 243.202C228.132 243.202 227.881 236.041 226.249 235.79C224.742 235.413 222.106 235.413 221.98 234.785C221.855 234.157 220.599 219.711 220.348 215.188C220.097 210.792 217.586 181.019 202.898 180.266C190.972 179.638 190.846 199.235 190.846 199.235C190.846 199.235 189.716 226.117 188.963 227.876C188.21 229.635 186.829 235.413 187.833 237.172C188.837 238.931 190.721 240.689 190.344 241.318C189.842 241.82 187.708 246.342 187.959 248.101C188.21 249.86 188.586 252.498 188.21 253.754C187.708 255.89 189.34 257.146 190.972 257.146C192.604 257.146 192.604 259.909 193.733 260.663C198.002 263.678 200.889 262.548 202.772 262.924C206.037 263.552 205.534 260.161 205.534 260.161C205.534 260.161 203.149 247.473 213.569 242.951C221.855 239.559 228.132 243.202 228.132 243.202Z" fill="#00232A"/>
<path d="M229.011 243.454C229.011 243.454 228.257 243.328 227.504 243.203C226.876 242.951 227.881 238.178 225.119 234.912C223.863 233.404 220.976 232.022 219.846 230.766C218.716 229.51 218.214 228.379 217.461 228.379C216.707 228.379 213.443 227.374 214.573 224.862C215.703 222.35 216.205 218.581 215.829 217.073C215.452 215.817 216.456 214.561 216.582 213.179C216.833 211.672 216.331 209.913 216.331 209.913C216.331 209.913 217.963 210.164 217.963 214.561C217.963 218.958 217.21 222.224 219.846 223.48C222.482 224.736 229.513 228.128 229.513 229.51C229.638 232.399 229.011 243.454 229.011 243.454Z" fill="#083D47"/>
<path d="M223.235 229.887C221.854 227.877 219.344 227.5 216.958 227.625C217.209 227.123 217.335 226.746 217.46 226.244C217.46 225.992 217.335 225.867 217.209 225.741C217.46 225.364 217.209 224.61 216.582 224.61C215.452 224.61 214.196 224.359 213.945 225.867C213.82 226.746 214.196 227.123 213.443 227.877C213.192 228.128 212.941 228.253 212.69 228.379C209.049 229.258 205.534 230.891 202.647 233.404C202.27 233.655 202.772 234.158 203.149 234.032C205.408 232.776 207.668 231.645 210.054 230.891C210.681 230.766 211.183 230.64 211.811 230.515C213.192 230.263 215.201 229.635 216.582 230.012C217.335 230.263 217.963 231.017 218.841 231.268C219.846 231.645 220.976 231.52 222.105 231.52C222.357 231.52 222.482 231.394 222.733 231.268C223.11 230.891 223.612 230.389 223.235 229.887Z" fill="#083D47"/>
<path d="M207.668 225.238C208.422 225.364 209.049 225.364 209.803 225.364C210.43 225.364 211.184 225.615 211.811 225.238C212.188 224.987 212.188 224.359 211.811 224.108C211.184 223.731 210.43 223.856 209.803 223.982C209.049 224.108 208.422 224.108 207.668 224.359C207.417 224.61 207.292 225.238 207.668 225.238Z" fill="#083D47"/>
<path d="M213.443 238.178C205.911 239.057 200.01 246.72 200.889 254.132C201.015 254.885 202.019 254.885 202.145 254.132C202.396 246.469 206.413 241.193 213.569 238.555C213.694 238.555 213.694 238.178 213.443 238.178Z" fill="#083D47"/>
<path d="M286.383 234.785C282.366 235.037 281.612 228.127 281.487 227.248C280.608 228.881 280.231 230.263 280.231 230.263L280.106 243.202C280.106 243.202 293.915 237.172 295.673 236.418C297.556 235.665 300.318 236.795 300.318 236.795C300.318 236.795 300.193 234.911 299.314 233.655C298.435 232.524 290.651 234.534 286.383 234.785Z" fill="#BB8574"/>
<path d="M207.92 247.599C203.275 255.387 205.534 261.543 205.534 261.543C205.534 261.543 208.924 264.809 215.703 264.558C228.383 264.306 240.686 259.784 248.595 258.277C248.595 258.277 249.725 259.784 254.621 258.277C259.392 256.769 258.764 257.146 260.396 257.523C262.279 258.025 263.66 260.538 264.539 262.297C264.539 262.171 264.664 262.171 264.664 262.171C264.664 262.171 263.032 253.754 260.019 253.754C257.006 253.754 255.5 254.131 251.482 253.377C247.465 252.749 245.582 254.131 240.811 255.011C236.041 255.89 219.218 259.03 214.699 255.639C210.431 252.498 212.314 245.212 217.335 241.82C217.461 241.82 210.682 242.951 207.92 247.599Z" fill="#BB8574"/>
<path d="M224.491 119.591C227.002 119.717 229.262 117.581 230.643 115.697C232.777 112.682 233.656 108.788 234.409 105.27C234.534 104.642 233.781 104.517 233.53 105.019C232.4 107.908 232.024 111.049 230.643 113.938C229.136 116.827 227.127 118.084 224.491 119.591C224.366 119.591 224.366 119.465 224.491 119.591Z" fill="black"/>
<path d="M220.976 116.954C220.474 117.833 220.599 118.461 221.227 119.34C222.231 120.973 223.487 122.104 223.612 124.114C223.863 127.003 222.608 129.139 225.244 131.274C225.495 131.4 225.746 131.149 225.621 130.898C222.985 128.636 224.868 125.998 224.617 123.235C224.491 122.355 224.24 121.35 223.738 120.597C223.11 119.466 221.353 118.461 221.353 116.954C221.353 116.828 221.101 116.828 220.976 116.954Z" fill="black"/>
<path d="M225.244 126.752C225.872 125.245 226.374 123.863 225.621 122.355C225.119 121.35 224.24 120.597 224.114 119.34C224.114 118.21 224.742 117.205 224.742 116.074C224.742 115.446 223.863 115.069 223.487 115.572C222.608 116.702 222.106 117.707 222.106 119.215C222.106 119.968 223.235 120.094 223.361 119.34C223.487 118.587 223.487 118.461 223.11 117.833C222.859 117.33 222.106 117.456 221.98 117.959C221.729 118.712 221.729 118.712 221.603 119.466C221.98 119.466 222.357 119.34 222.859 119.34C222.859 119.215 222.733 119.089 222.733 119.089C222.608 118.587 221.855 118.587 221.729 119.089C221.729 119.215 221.729 119.34 221.603 119.34C221.352 120.094 222.608 120.471 222.733 119.717C222.733 119.215 222.859 118.712 223.11 118.335C222.733 118.335 222.357 118.461 221.98 118.461C221.98 118.587 221.98 118.838 222.106 118.963C222.482 118.963 222.984 119.089 223.361 119.089C223.361 118.084 223.738 117.205 224.491 116.451C224.114 116.325 223.738 116.074 223.235 115.949C223.11 117.582 222.231 118.838 222.859 120.471C223.11 120.973 223.361 121.35 223.738 121.853C224.867 123.611 225.37 124.491 224.867 126.501C224.867 126.878 225.119 127.003 225.244 126.752Z" fill="black"/>
<path d="M317.015 148.736C317.015 148.736 321.283 152.504 325.677 151.751C330.196 150.997 331.954 145.721 331.703 145.721C331.577 145.846 317.015 148.736 317.015 148.736Z" fill="#B89787"/>
<path d="M234.409 122.355C234.409 122.355 233.781 122.104 232.651 121.852C232.526 121.727 231.647 121.224 231.647 120.973C231.521 120.722 231.396 120.722 231.396 121.099C231.396 121.35 231.521 121.601 231.647 121.852H231.521C231.396 121.852 230.391 121.727 229.889 121.099C229.764 120.847 229.638 120.973 229.638 121.224C229.764 121.475 230.015 121.852 230.14 121.978C229.764 121.978 229.262 121.852 228.885 121.727C228.634 121.601 228.508 121.852 228.759 121.978C229.513 122.606 230.14 122.983 231.145 122.983C231.396 122.983 231.647 122.983 232.023 122.857C231.898 123.109 231.772 123.234 231.772 123.485C231.647 124.49 232.526 124.867 233.53 124.867C234.409 124.867 234.785 124.365 235.288 123.988C236.041 123.36 235.413 122.857 234.409 122.355Z" fill="black"/>
<path d="M246.461 122.481C246.461 122.481 247.089 122.23 248.219 121.978C248.344 121.853 249.223 121.35 249.223 121.099C249.348 120.848 249.474 120.848 249.474 121.225C249.474 121.476 249.348 121.727 249.223 121.978H249.348C249.474 121.978 250.478 121.853 250.98 121.225C251.106 120.973 251.232 121.099 251.232 121.35C251.106 121.601 250.855 121.978 250.729 122.104C251.106 122.104 251.608 121.978 251.985 121.853C252.236 121.727 252.361 121.978 252.11 122.104C251.357 122.732 250.729 123.109 249.725 123.109C249.474 123.109 249.223 123.109 248.846 122.983C248.972 123.234 249.097 123.36 249.097 123.611C249.223 124.616 248.344 124.993 247.34 124.993C246.461 124.993 246.084 124.491 245.582 124.114C244.954 123.486 245.582 122.983 246.461 122.481Z" fill="black"/>
<path d="M254.872 119.088C252.11 118.335 249.223 118.963 246.586 120.093C246.084 120.345 244.829 118.712 245.08 118.586C248.218 116.827 252.11 116.827 255.123 118.712C255.5 118.837 254.872 119.088 254.872 119.088Z" fill="black"/>
<path d="M243.574 129.139C243.699 130.018 244.327 131.4 244.076 132.279C243.699 133.661 241.69 133.284 240.435 133.159C240.058 133.159 239.933 133.535 240.309 133.787C241.565 134.289 244.076 134.415 244.703 132.907C244.954 132.279 244.327 129.516 243.574 129.139Z" fill="#9B5A45"/>
<path d="M237.171 139.691C239.431 141.827 244.076 142.078 245.833 138.937C245.959 138.686 245.708 138.435 245.582 138.686C244.578 140.068 242.569 140.319 241.188 140.445C239.682 140.445 238.552 139.942 237.045 139.565C237.171 139.44 237.171 139.691 237.171 139.691Z" fill="#9B5A45"/>
<path d="M228.383 119.088C231.396 118.335 234.534 118.963 237.422 120.093C237.924 120.345 239.43 118.712 239.054 118.586C235.664 116.827 231.396 116.827 228.257 118.712C227.755 118.837 228.383 119.088 228.383 119.088Z" fill="black"/>
<path d="M291.907 188.055C292.409 187.929 335.344 188.055 335.344 188.055C335.344 188.055 335.344 195.969 335.093 195.969C334.842 195.969 309.734 194.587 308.98 194.587C308.102 194.713 291.907 188.055 291.907 188.055Z" fill="#8F8B88"/>
<path d="M291.907 192.201L314.504 198.482C315.383 198.482 316.011 197.728 316.011 196.974V195.969C316.011 195.09 315.258 194.462 314.504 194.462L291.907 188.181C291.028 188.181 290.4 188.934 290.4 189.688V190.693C290.275 191.447 291.028 192.201 291.907 192.201Z" fill="#ABA7A5"/>
<path d="M314.63 198.482H371.249C372.253 198.482 373.006 197.602 373.006 196.597L377.275 153.509C377.275 152.504 376.521 151.625 375.517 151.625H318.898C317.894 151.625 317.14 152.504 317.14 153.509L312.872 196.597C312.872 197.602 313.625 198.482 314.63 198.482Z" fill="#CCC9C8"/>
<path d="M347.27 173.608L344.634 169.84C345.262 169.463 346.141 169.086 346.894 169.086C349.279 169.086 351.162 170.97 351.162 173.357C351.162 175.744 349.279 177.628 346.894 177.628C344.76 177.628 343.002 175.995 342.751 173.985L347.27 173.608Z" fill="white"/>
<path d="M55.7528 271.491C55.5325 274.467 55.7528 276.451 55.6427 276.892C55.5325 277.333 55.0919 278.325 54.5411 279.978C53.9903 281.521 54.6513 281.411 54.6513 282.954C54.6513 284.387 54.431 283.836 54.3208 286.261C54.3208 286.922 53.3294 298.606 53.2192 300.811H83.2921C83.5124 300.37 84.7241 290.009 84.9444 289.347C85.4952 288.025 84.3936 287.474 84.1733 286.041C83.953 284.718 84.6139 285.379 85.1647 284.608C85.7155 283.836 86.7069 281.742 88.7999 275.789C90.8929 269.837 91.9945 266.42 91.9945 266.42C91.9945 266.42 92.3249 264.987 93.2062 266.641C93.757 267.633 97.3921 281.631 97.9429 283.285C98.4937 284.828 97.9429 288.245 97.6125 289.788C97.282 291.442 99.4851 293.316 100.587 300.921H129.227C128.677 295.41 128.126 279.096 127.795 273.916C126.914 256.5 123.059 238.422 123.059 237.982C123.059 237.21 121.847 235.336 121.847 235.336L121.957 232.14L59.0576 232.029C59.0576 232.029 57.4052 235.336 57.295 236.438C57.1849 237.541 56.8544 237.32 54.8716 243.603C52.8888 249.886 55.5325 255.838 55.6427 259.586C55.6427 263.334 55.9732 268.514 55.7528 271.491Z" fill="#152A51"/>
<path d="M62.8028 235.337C63.6841 235.337 115.898 233.463 118.983 233.463C122.067 233.463 115.127 239.966 105.213 243.383C93.3163 247.462 72.8271 248.454 65.7771 244.596C58.727 240.738 62.8028 235.337 62.8028 235.337Z" fill="#0B1529"/>
<path d="M73.5983 102.292C73.5983 102.292 75.3608 119.598 73.4881 122.243C72.1662 124.117 79.5467 139.549 92.1046 138.777C92.1046 138.777 98.8242 138.336 99.2648 132.604C99.4851 129.187 96.0703 123.125 97.282 114.527C98.4937 105.929 86.046 107.142 86.046 107.142L73.5983 102.292Z" fill="#EBC0AE"/>
<path d="M95.4094 118.385C95.4094 118.385 88.9101 119.487 85.6054 118.495C79.7671 116.622 77.564 114.417 77.564 114.417C77.564 114.417 79.7671 118.385 83.7328 120.59C87.8086 122.794 92.2148 123.456 95.4094 118.385Z" fill="#C48C7D"/>
<path d="M97.2822 123.235C97.2822 123.235 96.401 130.841 88.8001 131.061C82.3009 131.282 80.4282 127.975 80.4282 127.975C80.4282 127.975 85.9361 135.25 90.0119 135.25C94.1978 135.25 99.4854 128.306 97.2822 123.235Z" fill="#C48C7D"/>
<path d="M103.45 87.963C102.679 87.4119 101.688 87.4119 101.027 88.0732C98.1629 89.0653 98.6036 96.5607 99.3747 98.5448C99.9254 99.9778 101.027 100.97 102.569 99.8675C103.12 99.4266 103.45 98.7653 103.561 98.1039C103.891 96.5607 103.671 95.1278 104.222 93.6948C104.662 91.821 105.213 89.2857 103.45 87.963Z" fill="#EBC0AE"/>
<path d="M133.413 177.026C133.413 177.026 135.176 180.995 135.286 183.971C135.286 183.971 138.26 184.522 139.582 185.183C141.014 185.955 153.572 184.632 153.572 184.632C153.572 184.632 153.242 187.277 156.546 188.71C159.961 190.143 159.08 191.576 159.08 191.576C159.08 191.576 142.116 200.835 139.913 201.717C137.048 202.819 133.854 202.93 132.202 203.04C130.549 203.15 130.439 203.591 129.448 203.15C128.456 202.599 128.126 201.938 127.685 201.166C127.244 200.394 125.262 198.741 123.94 195.324C123.279 193.56 118.873 182.868 118.873 182.868L133.413 177.026Z" fill="#EBC0AE"/>
<path d="M137.049 175.484L128.346 141.644C128.346 141.644 127.465 138.117 126.804 137.014C126.143 135.912 123.61 135.471 123.61 135.471L98.2736 123.456C98.2736 123.456 98.6041 129.409 95.74 133.267L95.2994 132.385C95.2994 132.385 93.3166 134.369 93.2064 133.928C93.0963 133.487 92.215 133.597 92.215 133.597C90.6728 133.928 87.1478 133.708 87.1478 133.708L84.3939 134.81C77.6743 131.283 73.0477 122.023 73.0477 122.023C73.0477 122.023 45.178 133.818 44.4069 134.148C43.746 134.479 42.9749 134.148 40.8819 134.81C38.7889 135.471 38.3483 139.329 38.3483 139.329L21.8248 177.137C21.8248 177.137 21.6044 180.113 25.7904 182.207C29.6459 184.191 39.2295 189.813 44.8475 189.813C44.8475 189.813 51.0163 179.011 51.1265 179.011C51.1265 179.011 55.3124 195.876 55.6429 214.283C55.8632 229.385 53.1093 230.707 53.6601 231.148C63.464 239.966 94.5283 236.329 100.587 235.337C116.78 232.691 121.627 234.235 122.398 232.912C128.236 222.661 119.864 207.119 123.72 181.326C123.72 181.105 137.049 175.484 137.049 175.484Z" fill="#366ED8"/>
<path d="M93.2059 134.148C93.2059 134.148 92.7653 137.455 93.4262 138.116C93.977 138.778 98.4934 143.297 99.4848 143.297C100.476 143.297 99.8153 136.904 99.8153 136.904L96.1801 132.936L93.2059 134.148Z" fill="#2953A2"/>
<path d="M93.3159 133.928C93.3159 133.928 98.6034 129.519 97.1714 122.905L96.9511 119.157L98.1628 119.598C98.1628 119.598 99.1542 119.929 99.2644 120.921C99.4847 121.913 102.349 131.062 102.349 131.062C102.349 131.062 102.128 143.076 99.9253 143.517C97.9425 143.738 93.3159 133.928 93.3159 133.928Z" fill="#F3A953"/>
<path d="M87.1472 133.707C87.1472 133.707 86.9269 136.352 87.3675 136.683C87.9183 137.014 89.9011 137.345 90.7824 137.014C90.7824 137.014 91.223 138.667 89.5707 138.888C87.9183 139.108 86.3761 138.667 85.605 139.329C84.8339 139.99 80.0972 143.958 80.0972 143.958C80.0972 143.958 81.0886 137.345 81.7495 136.793C82.4105 136.352 87.1472 133.707 87.1472 133.707Z" fill="#2953A2"/>
<path d="M74.2589 118.605L71.0644 119.157C71.0644 119.157 69.3019 119.487 68.7511 121.361C68.5308 122.243 67.4292 124.999 67.4292 124.999L77.7839 144.178C77.7839 144.178 79.4363 145.391 80.8683 143.186C82.3004 140.982 87.0371 133.817 87.0371 133.817C87.0371 133.817 75.9113 125.88 74.2589 118.605Z" fill="#F3A953"/>
<path d="M100.477 89.8365C100.477 89.8365 100.366 91.4899 100.366 92.041C100.366 92.5922 100.036 92.8126 99.8156 93.3638C99.5953 93.8047 100.036 95.899 100.036 95.899C100.036 95.899 102.129 96.1194 102.349 94.9069C102.68 93.6944 103.23 92.5922 103.01 91.4899C102.79 90.1672 102.129 89.1751 100.477 89.8365Z" fill="#C48C7D"/>
<path d="M48.3721 251.981C48.3721 251.981 49.9143 259.367 49.9143 259.587C50.0244 259.808 56.1932 265.098 56.1932 265.098C56.1932 265.098 56.3034 261.902 55.6424 260.689C54.9815 259.477 52.7783 255.068 52.4479 254.737C52.2276 254.296 48.3721 251.981 48.3721 251.981Z" fill="#C48C7D"/>
<path d="M182.433 161.815C181.993 162.366 179.569 164.24 179.569 164.24L171.087 172.286L170.977 172.176C172.189 170.743 176.154 164.57 176.375 164.46C176.595 164.35 177.476 162.697 176.705 161.925C175.934 161.153 174.612 162.807 174.392 162.917C174.172 163.027 171.528 166.334 171.087 166.665C170.757 166.885 168.443 169.641 167.672 170.633C167.011 171.184 166.24 172.066 166.02 172.397C165.579 172.948 164.037 174.16 164.037 174.16C164.257 172.286 162.495 170.853 161.834 170.743C161.173 170.523 159.631 171.515 160.292 172.066C161.063 172.727 160.292 174.27 159.961 175.262C159.631 176.254 157.428 177.908 156.546 178.679C155.665 179.451 155.555 181.215 155.004 182.537C154.123 184.521 152.691 184.632 152.691 184.632C152.691 184.632 153.242 187.828 153.682 189.151C154.123 190.474 156.546 192.678 158.97 191.466C161.393 190.364 162.275 190.253 165.91 189.482C167.232 189.261 172.079 185.514 174.392 183.309C174.502 183.309 174.502 183.199 174.612 183.199C177.036 181.435 177.697 180.443 177.697 180.112C177.697 179.782 177.476 179.01 176.815 178.679C176.154 178.349 175.824 178.9 175.604 178.79C175.383 178.79 175.604 178.569 175.604 178.459C176.264 177.908 176.925 177.246 177.256 177.026C177.586 176.695 177.476 175.593 176.925 174.821C176.264 174.05 175.493 174.601 175.493 174.601C175.493 174.601 174.612 175.262 174.061 175.262C173.621 175.262 173.731 175.042 173.731 174.932C174.943 173.609 178.578 169.09 178.578 169.09C178.578 169.09 182.543 164.46 183.315 163.137C184.086 161.815 182.874 161.264 182.433 161.815Z" fill="#EBC0AE"/>
<path d="M101.137 72.7514C100.917 72.531 100.587 72.8616 100.587 73.0821C98.3834 73.0821 98.2732 75.2866 98.3834 76.94C98.7138 80.3571 99.3748 83.7741 100.366 87.0809C100.476 87.6321 101.468 87.8525 101.688 87.3014C102.459 85.7582 103.23 84.1048 103.891 82.4514C104.442 81.1287 105.323 79.5855 105.323 78.0423C105.433 75.6173 103.12 73.6332 101.137 72.7514Z" fill="black"/>
<path d="M71.7253 91.3789C71.7253 90.6073 70.8441 89.8357 69.9628 89.6153C68.7511 89.1744 67.4292 89.1744 66.4378 89.946C65.5566 90.6073 64.5651 96.2289 66.4378 98.8744C69.1917 102.622 72.4964 102.953 73.4879 101.63" fill="#EBC0AE"/>
<path d="M100.697 78.3727C101.908 80.9079 101.468 83.884 101.798 86.6397C101.908 87.742 102.129 88.8442 101.578 89.8363C101.358 90.2772 100.917 90.7181 100.807 91.2692C100.697 91.8204 100.917 92.3715 101.137 92.9226C102.569 97.001 101.688 101.41 100.586 105.599C99.8153 108.575 99.0442 111.551 98.2731 114.637C97.9426 115.96 97.502 117.283 96.4004 118.165C95.409 118.936 94.0871 119.157 92.7653 119.267C89.2402 119.487 85.7152 118.936 82.4105 117.724C81.1988 117.283 79.9871 116.621 78.9957 115.85C78.1144 114.968 77.4535 113.866 76.9027 112.764C74.4792 108.024 71.2847 92.9226 70.7339 87.6317V79.3647C70.7339 79.3647 77.7839 73.4125 88.5793 73.192C99.2645 72.7511 100.146 77.1602 100.697 78.3727Z" fill="#EBC0AE"/>
<path d="M70.734 91.2696C70.734 91.2696 68.7511 91.0492 68.3105 91.931C67.7597 92.8128 67.7597 95.2378 68.8613 96.0094C70.073 96.781 71.0644 98.1037 71.3949 97.5526C71.7254 97.1116 71.9457 94.7969 71.7254 93.9151C71.5051 92.923 70.734 91.2696 70.734 91.2696Z" fill="#C48C7D"/>
<path d="M72.0562 96.7811C72.1663 96.3402 72.2765 95.8992 72.3866 95.5686C72.4968 94.9072 72.607 94.2458 72.4968 93.6947C72.3866 92.7027 72.0562 92.0413 71.1749 91.4902C70.0733 90.8288 68.9718 90.8288 67.8702 91.4902C67.4296 91.8208 67.5397 92.0413 67.8702 91.9311C69.0819 91.3799 70.7343 91.9311 71.1749 93.364C71.3952 93.8049 71.2851 94.3561 71.2851 94.9072C70.8445 94.2458 69.7429 94.1356 69.0819 94.5765C68.8616 94.6867 68.9718 94.797 69.1921 94.797C69.7429 94.6867 69.9632 94.797 70.4038 95.0174C70.7343 95.2379 71.1749 95.789 71.1749 95.8992C71.0648 96.3402 70.9546 96.4504 70.9546 96.7811C70.9546 97.4424 71.0648 98.1038 71.7257 98.6549C72.3866 98.9856 71.6155 98.1038 72.0562 96.7811Z" fill="black"/>
<path d="M104.883 62.9412C99.1545 65.1458 99.0443 63.3822 95.4092 60.9572C92.1045 58.7526 84.063 57.4299 77.1231 62.5003C74.92 64.1537 73.9286 65.3662 73.7083 68.0117C72.1661 67.7912 70.1832 68.3424 69.302 69.7753C66.8785 69.3344 64.7856 70.3265 63.9043 73.1924C63.7941 73.6333 64.0145 74.1844 64.2348 73.7435C64.8957 72.6412 66.2176 71.7594 67.4293 71.6492C65.116 72.9719 63.9043 76.1685 65.6668 78.5935C66.2176 79.3651 66.9887 79.6958 67.5395 80.3571C68.7512 81.6798 68.4207 83.5537 68.4207 85.2071C68.4207 87.7423 68.7512 88.1832 70.6239 89.3957C70.9543 90.6082 71.395 91.7105 71.8356 92.8128C72.0559 93.2537 72.6067 93.3639 72.4965 92.923C72.3864 92.1514 72.2762 90.9389 72.1661 90.1673C72.2762 88.5139 72.2762 86.5298 73.3778 85.4276C74.0387 84.7662 74.92 84.5457 75.5809 83.5537C76.7927 81.6798 76.5723 79.6958 76.2419 77.6014C77.5638 78.9242 79.3263 79.806 80.9786 79.806C81.0888 79.806 81.0888 79.6958 80.9786 79.5855C79.7669 78.8139 78.445 78.2628 77.3434 77.381C77.2333 77.2708 77.1231 77.1605 77.013 77.0503C82.9614 79.3651 89.681 80.798 95.8498 78.7037C96.9514 78.373 98.1631 77.9321 99.0443 77.0503C100.366 75.8378 101.027 74.0742 102.129 72.6412C103.891 70.2162 106.425 67.681 106.535 64.7049C106.535 62.0594 105.654 62.6106 104.883 62.9412Z" fill="black"/>
<path d="M132.973 177.137C132.863 177.578 133.524 179.782 132.092 180.884C130.66 181.987 126.584 184.853 125.923 187.829C125.152 191.025 122.508 192.238 122.838 189.151C123.169 185.734 123.72 181.215 123.72 181.215L132.973 177.137Z" fill="#C48C7D"/>
<path d="M24.6885 181.767L20.833 191.136C20.833 191.136 17.9689 195.765 19.401 197.639C20.833 199.513 22.0447 199.954 22.7057 201.828C23.3666 203.592 48.3722 233.794 48.8129 235.447C48.8129 235.447 51.7871 235.227 53.5496 232.581C55.3121 229.936 55.8629 227.621 55.8629 227.621C55.8629 227.621 46.83 216.598 44.5167 207.78C42.9745 202.048 40.0003 194.994 38.5683 193.671L41.212 189.372L32.73 185.735L24.6885 181.767Z" fill="#EBC0AE"/>
<path d="M48.1518 234.123C49.5839 238.092 47.4909 245.918 47.4909 245.918C47.4909 245.918 47.0502 248.563 47.3807 249.665C47.8213 251.098 51.126 257.271 51.126 257.271C51.126 257.271 56.744 265.648 56.8542 265.979C57.2948 266.53 58.1761 265.428 57.8456 263.885C57.6253 262.342 53.9901 249.004 53.9901 249.004C53.9901 249.004 55.312 245.807 56.744 243.934C58.0659 242.06 59.498 242.942 59.498 242.942C59.498 242.942 62.8027 245.256 65.8871 244.595C69.1918 243.823 68.4207 242.06 68.4207 242.06C68.4207 242.06 66.6582 240.957 66.3277 240.847C65.9972 240.737 63.5738 238.643 63.3535 237.871C63.1331 237.1 61.9214 232.47 61.7011 232.25C60.3792 231.257 56.0831 227.51 56.0831 227.51L51.8971 228.722C51.787 228.832 47.601 232.69 48.1518 234.123Z" fill="#EBC0AE"/>
<path d="M60.5995 240.407C59.1675 238.092 55.312 240.628 54.4308 238.092C53.6597 236.108 52.6682 232.25 51.4565 231.699C50.1346 231.038 47.9315 233.022 48.0417 234.124C48.0417 234.124 48.0417 234.124 48.1518 234.235C49.5839 238.203 47.4909 246.029 47.4909 246.029C47.4909 246.029 47.0502 248.674 47.3807 249.777C47.8213 251.209 51.126 257.382 51.126 257.382C51.126 257.382 56.744 265.759 56.8542 266.09C57.2948 266.641 58.1761 265.539 57.8456 263.996C57.6253 262.453 53.9901 249.115 53.9901 249.115C53.9901 249.115 55.312 245.919 56.7441 244.045C58.0659 242.171 59.498 243.053 59.498 243.053C59.498 243.053 62.8027 245.367 65.8871 244.706C67.6496 244.265 68.3105 243.604 68.4207 243.053C67.209 242.391 63.5738 245.257 60.5995 240.407Z" fill="#C48C7D"/>
<path d="M26.6714 182.648C26.6714 182.648 28.7644 191.246 33.1706 191.687C35.2636 191.908 36.4753 192.459 36.4753 192.459C36.4753 192.459 38.0175 192.569 39.009 191.136C40.0004 189.483 40.441 189.152 40.3308 189.042C35.2636 186.947 26.6714 182.648 26.6714 182.648Z" fill="#C48C7D"/>
<path d="M11.1968 301.49L423.976 354V333.398C418.326 327.619 11.1968 301.49 11.1968 301.49Z" fill="#00232A"/>
<path d="M423.976 333.399V304.506C423.474 304.506 422.846 304.506 421.842 304.506L9.69044 294.456C7.30516 294.456 7.05408 300.36 9.43936 300.611L423.976 333.399Z" fill="#00232A"/>
<path d="M167.998 323.977C167.998 323.349 167.998 322.721 167.998 322.092C167.998 296.466 147.284 275.738 121.673 275.738C96.0629 275.738 75.3486 296.466 75.3486 322.092C75.3486 322.721 75.3486 323.349 75.3486 323.977H167.998Z" fill="#28EDCA"/>
</g>
<defs>
<clipPath id="clip0_766_225">
<rect width="423.952" height="354" fill="white" transform="translate(0.0239258)"/>
</clipPath>
</defs>
</svg>
