<svg width="32" height="32" viewBox="0 0 32 32" fill="none" xmlns="http://www.w3.org/2000/svg">
<path d="M8.67406 24.6933C8.26144 24.6933 7.91557 24.5538 7.63646 24.2746C7.35732 23.9955 7.21776 23.6496 7.21776 23.237V20.3244H26.1496V7.21776H29.0622C29.4748 7.21776 29.8207 7.35732 30.0998 7.63646C30.3789 7.91557 30.5185 8.26144 30.5185 8.67406V30.5185L24.6933 24.6933H8.67406ZM1.39258 23.237V2.84887C1.39258 2.43626 1.53214 2.09039 1.81126 1.81126C2.09039 1.53214 2.43626 1.39258 2.84887 1.39258H21.7807C22.1933 1.39258 22.5392 1.53214 22.8183 1.81126C23.0975 2.09039 23.237 2.43626 23.237 2.84887V15.9555C23.237 16.3682 23.0975 16.714 22.8183 16.9931C22.5392 17.2723 22.1933 17.4118 21.7807 17.4118H7.21776L1.39258 23.237ZM20.3244 14.4992V4.30517H4.30517V14.4992H20.3244Z" fill="#1877F2"/>
</svg>
