<svg xmlns="http://www.w3.org/2000/svg" width="22.084" height="24.823" viewBox="0 0 22.084 24.823">
  <path id="costumer-support-call-svgrepo-com" d="M4,25.594V22.456a6.9,6.9,0,0,1,6.9-6.9H17.18a6.9,6.9,0,0,1,6.9,6.9v3.138m-15.063,0V21.828m10.042,3.766V21.828m-6.276-11.3H8.393A1.883,1.883,0,0,1,6.51,8.648V7.393a5.634,5.634,0,0,1,1.883-4.21m13.18,6.093V7.393a5.635,5.635,0,0,0-1.883-4.21m4.393,5.465V6.766M4,8.648V6.766M19.063,8.021A5.021,5.021,0,1,1,14.042,3,5.021,5.021,0,0,1,19.063,8.021Z" transform="translate(-3 -1.771)" fill="none" stroke="#70c1fa" stroke-linecap="round" stroke-linejoin="round" stroke-width="2"/>
</svg>
