<svg xmlns="http://www.w3.org/2000/svg" width="27.91" height="27.906" viewBox="0 0 27.91 27.906">
  <path id="reminder-svgrepo-com" d="M29.409,4.943a4.255,4.255,0,0,0-3.541-3.37,4.46,4.46,0,0,0-3.312.914.463.463,0,0,0,.114.8A16.265,16.265,0,0,1,28.038,7.97a.48.48,0,0,0,.8,0,3.923,3.923,0,0,0,.571-3.027ZM8.392,3.344a.514.514,0,0,0,.114-.8A4,4,0,0,0,5.194,1.63,4.129,4.129,0,0,0,1.653,4.943,4.2,4.2,0,0,0,2.282,7.97a.48.48,0,0,0,.8,0A14.849,14.849,0,0,1,8.392,3.344Zm7.139,1.028A12.6,12.6,0,0,0,2.967,16.936,12.324,12.324,0,0,0,5.423,24.36L3.538,26.245a1.828,1.828,0,0,0,0,2.627,1.8,1.8,0,0,0,2.627,0L8.05,26.987a12.621,12.621,0,0,0,7.481,2.456,12.324,12.324,0,0,0,7.424-2.456l1.885,1.885a1.856,1.856,0,0,0,1.371.571,1.885,1.885,0,0,0,1.314-3.2L25.64,24.36A12.324,12.324,0,0,0,28.1,16.936,12.53,12.53,0,0,0,15.531,4.372ZM6.679,16.879A8.846,8.846,0,1,1,9.27,23.14a8.852,8.852,0,0,1-2.591-6.261Zm10.28-.514V12.71a1.354,1.354,0,0,0-1.371-1.371,1.388,1.388,0,0,0-1.371,1.371v4.169a1.176,1.176,0,0,0,.4.971l3.255,3.255a1.376,1.376,0,0,0,1.942,0,1.314,1.314,0,0,0,0-1.942Z" transform="translate(-1.591 -1.538)" fill="#fbea80"/>
</svg>
