<svg xmlns="http://www.w3.org/2000/svg" width="34.87" height="34.871" viewBox="0 0 34.87 34.871">
  <g id="bx-badge-check" transform="translate(-4 -4)">
    <path id="Path_241" data-name="Path 241" d="M7.548,27.5a6.932,6.932,0,0,0-.061.908,7.014,7.014,0,0,0,7.882,6.911,6.957,6.957,0,0,0,12.131,0,7.018,7.018,0,0,0,7.882-6.911,6.933,6.933,0,0,0-.061-.908,6.959,6.959,0,0,0,0-12.131,6.932,6.932,0,0,0,.061-.908A7.014,7.014,0,0,0,27.5,7.55a6.957,6.957,0,0,0-12.131,0,7.01,7.01,0,0,0-7.882,6.911,6.933,6.933,0,0,0,.061.908,6.959,6.959,0,0,0,0,12.131Zm2.514-9.42,1.921-.511-.757-1.836a3.369,3.369,0,0,1-.253-1.273,3.491,3.491,0,0,1,3.487-3.487,3.375,3.375,0,0,1,1.273.253l1.838.757.511-1.921a3.47,3.47,0,0,1,6.706,0l.511,1.921,1.838-.757a3.375,3.375,0,0,1,1.273-.253A3.491,3.491,0,0,1,31.9,14.461a3.368,3.368,0,0,1-.253,1.273l-.757,1.836,1.921.511a3.475,3.475,0,0,1,0,6.709l-1.921.511.757,1.836a3.368,3.368,0,0,1,.253,1.273A3.491,3.491,0,0,1,28.409,31.9a3.374,3.374,0,0,1-1.273-.253L25.3,30.887l-.511,1.921a3.47,3.47,0,0,1-6.706,0l-.511-1.921-1.838.757a3.374,3.374,0,0,1-1.273.253,3.491,3.491,0,0,1-3.487-3.487,3.368,3.368,0,0,1,.253-1.273l.757-1.836-1.921-.511a3.475,3.475,0,0,1,0-6.709Z" fill="#69e48e"/>
    <path id="Path_242" data-name="Path 242" d="M29.574,21.056,27.119,18.58l-5.808,5.752-2.26-2.26-2.465,2.465L21.3,29.252Z" transform="translate(-1.614 -1.87)" fill="#69e48e"/>
  </g>
</svg>
