<svg xmlns="http://www.w3.org/2000/svg" width="23.136" height="28.889" viewBox="0 0 23.136 28.889">
  <g id="document-report-svgrepo-com" transform="translate(-3.5 -1.5)">
    <path id="Path_269" data-name="Path 269" d="M15,11v8.63" transform="translate(4.383 3.506)" fill="none" stroke="#fbea80" stroke-linecap="round" stroke-linejoin="round" stroke-width="3"/>
    <path id="Path_270" data-name="Path 270" d="M12,12v7.191" transform="translate(3.068 3.944)" fill="none" stroke="#fbea80" stroke-linecap="round" stroke-linejoin="round" stroke-width="3"/>
    <path id="Path_271" data-name="Path 271" d="M9,14v4.315" transform="translate(1.753 4.821)" fill="none" stroke="#fbea80" stroke-linecap="round" stroke-linejoin="round" stroke-width="3"/>
    <path id="Path_272" data-name="Path 272" d="M23.451,8.506a6.121,6.121,0,0,1,1.466,1.776,6.121,6.121,0,0,1,.219,2.292V23.136c0,2.712,0,4.068-.843,4.911s-2.2.843-4.911.843h-8.63c-2.712,0-4.068,0-4.911-.843S5,25.848,5,23.136V8.753c0-2.712,0-4.068.843-4.911S8.041,3,10.753,3h4.808a6.12,6.12,0,0,1,2.292.219A6.12,6.12,0,0,1,19.63,4.685Z" fill="none" stroke="#fbea80" stroke-linejoin="round" stroke-width="3"/>
  </g>
</svg>
